G04*
G04 #@! TF.GenerationSoftware,Altium Limited,Altium Designer,21.8.1 (53)*
G04*
G04 Layer_Physical_Order=1*
G04 Layer_Color=255*
%FSLAX44Y44*%
%MOMM*%
G71*
G04*
G04 #@! TF.SameCoordinates,173B3D81-F0AF-4075-A482-619B5BD7BC7F*
G04*
G04*
G04 #@! TF.FilePolarity,Positive*
G04*
G01*
G75*
%ADD13C,0.2500*%
%ADD15C,0.2540*%
%ADD16R,0.9800X0.9300*%
%ADD17R,0.9300X0.9800*%
%ADD18R,0.6000X0.6500*%
%ADD19R,2.5000X1.0000*%
%ADD20R,1.7000X0.6000*%
%ADD21O,0.2800X1.8000*%
%ADD22O,1.8000X0.2800*%
%ADD23R,1.1000X0.6500*%
%ADD24R,1.1000X0.3500*%
%ADD25O,1.8000X0.7000*%
%ADD26R,1.2000X0.6500*%
%ADD43C,0.1520*%
%ADD44C,1.5000*%
%ADD45R,1.5000X1.5000*%
%ADD46O,1.5000X1.2000*%
%ADD47O,2.0000X1.2000*%
%ADD48C,0.7000*%
%ADD49C,0.6000*%
G36*
X200000Y82961D02*
X201769D01*
X205239Y82271D01*
X208508Y80917D01*
X211449Y78951D01*
X213951Y76449D01*
X215917Y73508D01*
X217271Y70239D01*
X217961Y66769D01*
X217961Y65000D01*
X217961Y-65000D01*
X217961Y-66769D01*
X217271Y-70239D01*
X215917Y-73508D01*
X213951Y-76449D01*
X211449Y-78951D01*
X208508Y-80917D01*
X205239Y-82271D01*
X201769Y-82961D01*
X200000D01*
X-190000Y-82961D01*
X-191769D01*
X-195239Y-82271D01*
X-198508Y-80917D01*
X-201449Y-78951D01*
X-203951Y-76449D01*
X-205917Y-73508D01*
X-207271Y-70239D01*
X-207961Y-66769D01*
X-207961Y-65000D01*
X-207961Y65000D01*
Y66769D01*
X-207271Y70239D01*
X-205917Y73508D01*
X-203951Y76449D01*
X-201449Y78951D01*
X-198508Y80917D01*
X-195239Y82271D01*
X-191769Y82961D01*
X-190000Y82961D01*
X200000Y82961D01*
D02*
G37*
%LPC*%
G36*
X-50896Y81145D02*
X-50897Y81145D01*
X-123980D01*
X-123980Y81145D01*
X-124869Y80968D01*
X-125624Y80464D01*
X-125624Y80464D01*
X-132281Y73806D01*
X-133318Y74405D01*
X-135612Y75020D01*
X-137987D01*
X-140282Y74405D01*
X-142338Y73218D01*
X-144018Y71538D01*
X-145205Y69482D01*
X-145820Y67188D01*
Y64812D01*
X-145205Y62518D01*
X-144018Y60462D01*
X-142338Y58782D01*
X-140282Y57595D01*
X-137987Y56980D01*
X-135612D01*
X-133318Y57595D01*
X-131262Y58782D01*
X-129582Y60462D01*
X-128395Y62518D01*
X-127780Y64812D01*
Y67188D01*
X-128395Y69482D01*
X-128994Y70519D01*
X-123017Y76495D01*
X-105852D01*
X-105366Y75322D01*
X-106881Y73806D01*
X-107918Y74405D01*
X-110212Y75020D01*
X-112587D01*
X-114882Y74405D01*
X-116938Y73218D01*
X-118618Y71538D01*
X-119805Y69482D01*
X-120420Y67188D01*
Y64812D01*
X-119805Y62518D01*
X-118618Y60462D01*
X-116938Y58782D01*
X-114882Y57595D01*
X-112587Y56980D01*
X-110212D01*
X-107918Y57595D01*
X-105862Y58782D01*
X-104182Y60462D01*
X-102995Y62518D01*
X-102380Y64812D01*
Y67188D01*
X-102995Y69482D01*
X-103594Y70519D01*
X-100657Y73455D01*
X-69620D01*
Y56980D01*
X-56245D01*
Y31420D01*
X-59570D01*
Y27845D01*
X-82650D01*
X-83739Y27628D01*
X-84662Y27011D01*
X-99253Y12420D01*
X-107570D01*
Y3603D01*
X-114658Y-3485D01*
X-115275Y-4408D01*
X-115410Y-5087D01*
X-115558Y-5387D01*
X-116749Y-5832D01*
X-124500D01*
X-126459Y-6221D01*
X-128119Y-7331D01*
X-129229Y-8991D01*
X-129618Y-10950D01*
X-129229Y-12909D01*
X-128119Y-14569D01*
X-126459Y-15679D01*
X-124500Y-16068D01*
X-113500D01*
X-111541Y-15679D01*
X-109881Y-14569D01*
X-108771Y-12909D01*
X-108382Y-10950D01*
X-108538Y-10162D01*
X-107921Y-9212D01*
X-107409Y-9526D01*
X-107069Y-9988D01*
X-106832Y-10560D01*
X-105560Y-11832D01*
X-103899Y-12520D01*
X-102101D01*
X-100440Y-11832D01*
X-99168Y-10560D01*
X-98480Y-8899D01*
Y-7101D01*
X-99168Y-5440D01*
X-100155Y-4452D01*
Y-420D01*
X-95230D01*
Y8397D01*
X-81472Y22155D01*
X-59570D01*
Y18580D01*
X-47230D01*
Y31420D01*
X-50555D01*
Y58800D01*
X-50772Y59889D01*
X-51389Y60812D01*
X-51580Y61003D01*
Y70258D01*
X-50407Y70743D01*
X-41325Y61662D01*
Y52400D01*
X-41325Y52400D01*
X-41148Y51510D01*
X-40644Y50756D01*
X-29000Y39113D01*
X-28851Y38361D01*
X-28205Y37395D01*
Y36605D01*
X-28851Y35639D01*
X-29077Y34500D01*
X-28851Y33361D01*
X-28205Y32395D01*
Y31605D01*
X-28851Y30639D01*
X-29077Y29500D01*
X-28851Y28361D01*
X-28546Y27905D01*
X-28309Y27000D01*
X-28546Y26095D01*
X-28851Y25639D01*
X-29077Y24500D01*
X-28851Y23361D01*
X-28205Y22395D01*
Y21605D01*
X-28851Y20639D01*
X-29077Y19500D01*
X-28851Y18361D01*
X-28546Y17905D01*
X-28309Y17000D01*
X-28546Y16095D01*
X-28851Y15639D01*
X-29077Y14500D01*
X-28851Y13361D01*
X-28205Y12395D01*
Y11605D01*
X-28851Y10639D01*
X-29077Y9500D01*
X-29221Y9325D01*
X-31638D01*
X-31818Y9405D01*
X-31830Y9405D01*
Y13420D01*
X-35595D01*
X-35595Y13433D01*
X-35675Y13613D01*
Y18388D01*
X-35595Y18568D01*
X-35595Y18580D01*
X-31830D01*
Y31420D01*
X-44170D01*
Y18580D01*
X-40405D01*
X-40405Y18568D01*
X-40325Y18388D01*
Y13613D01*
X-40405Y13433D01*
X-40405Y13420D01*
X-44170D01*
Y1825D01*
X-51050D01*
X-51050Y1825D01*
X-51940Y1648D01*
X-52694Y1144D01*
X-52694Y1144D01*
X-59511Y-5673D01*
X-59697Y-5746D01*
X-59917Y-5956D01*
X-60081Y-6098D01*
X-60097Y-6111D01*
X-60342Y-6062D01*
X-60376Y-6048D01*
X-60388Y-6053D01*
X-61500Y-5832D01*
X-72500D01*
X-74459Y-6221D01*
X-76119Y-7331D01*
X-77229Y-8991D01*
X-77618Y-10950D01*
X-77229Y-12909D01*
X-76119Y-14569D01*
X-74459Y-15679D01*
X-72500Y-16068D01*
X-61500D01*
X-59541Y-15679D01*
X-58320Y-14863D01*
X-57050Y-15438D01*
Y-19161D01*
X-58320Y-19737D01*
X-59541Y-18921D01*
X-61500Y-18532D01*
X-72500D01*
X-74459Y-18921D01*
X-76119Y-20031D01*
X-77229Y-21691D01*
X-77618Y-23650D01*
X-77437Y-24564D01*
X-87011Y-34139D01*
X-87628Y-35061D01*
X-87845Y-36150D01*
Y-61580D01*
X-91170D01*
Y-74420D01*
X-78830D01*
Y-74379D01*
X-78802Y-74347D01*
X-77560Y-73832D01*
X-75899Y-74520D01*
X-74101D01*
X-72440Y-73832D01*
X-71168Y-72560D01*
X-70480Y-70899D01*
Y-69101D01*
X-71168Y-67440D01*
X-72440Y-66168D01*
X-74101Y-65480D01*
X-75899D01*
X-77560Y-66168D01*
X-78802Y-65653D01*
X-78830Y-65621D01*
Y-61580D01*
X-82155D01*
Y-37328D01*
X-73414Y-28587D01*
X-72500Y-28768D01*
X-61500D01*
X-59541Y-28379D01*
X-58320Y-27563D01*
X-57050Y-28138D01*
Y-36787D01*
X-62095Y-41832D01*
X-62599Y-42586D01*
X-62776Y-43476D01*
X-63702Y-43857D01*
X-63946Y-43932D01*
X-72500D01*
X-74459Y-44321D01*
X-76119Y-45431D01*
X-77229Y-47091D01*
X-77618Y-49050D01*
X-77229Y-51009D01*
X-76119Y-52669D01*
X-74459Y-53779D01*
X-72500Y-54168D01*
X-61500D01*
X-59541Y-53779D01*
X-57881Y-52669D01*
X-56771Y-51009D01*
X-56382Y-49050D01*
X-56771Y-47091D01*
X-57456Y-46066D01*
X-57457Y-46038D01*
X-57506Y-45992D01*
X-57881Y-45431D01*
X-57876Y-44187D01*
X-53082Y-39394D01*
X-53082Y-39394D01*
X-52578Y-38640D01*
X-52401Y-37750D01*
Y-12689D01*
X-47537Y-7825D01*
X-27877D01*
X-27239Y-8251D01*
X-26100Y-8477D01*
X-10900D01*
X-9761Y-8251D01*
X-8795Y-7605D01*
X-8149Y-6639D01*
X-7923Y-5500D01*
X-8149Y-4361D01*
X-8795Y-3395D01*
Y-2605D01*
X-8149Y-1639D01*
X-7923Y-500D01*
X-8149Y639D01*
X-8454Y1095D01*
X-8691Y2000D01*
X-8454Y2905D01*
X-8149Y3361D01*
X-7923Y4500D01*
X-8149Y5639D01*
X-8795Y6605D01*
Y7395D01*
X-8149Y8361D01*
X-7923Y9500D01*
X-8149Y10639D01*
X-8795Y11605D01*
Y12395D01*
X-8149Y13361D01*
X-7923Y14500D01*
X-8149Y15639D01*
X-8454Y16095D01*
X-8691Y17000D01*
X-8454Y17905D01*
X-8149Y18361D01*
X-7923Y19500D01*
X-8149Y20639D01*
X-8795Y21605D01*
Y22395D01*
X-8149Y23361D01*
X-7923Y24500D01*
X-8149Y25639D01*
X-8454Y26095D01*
X-8691Y27000D01*
X-8454Y27905D01*
X-8149Y28361D01*
X-7923Y29500D01*
X-8149Y30639D01*
X-8795Y31605D01*
Y32395D01*
X-8149Y33361D01*
X-7923Y34500D01*
X-8149Y35639D01*
X-8795Y36605D01*
Y37395D01*
X-8149Y38361D01*
X-8139Y38412D01*
X-7416Y38895D01*
X-7416Y38895D01*
X1024D01*
X1024Y38895D01*
X1914Y39072D01*
X2668Y39576D01*
X5143Y42051D01*
X5639Y42149D01*
X6605Y42795D01*
X7395D01*
X8361Y42149D01*
X9500Y41923D01*
X10639Y42149D01*
X11095Y42454D01*
X12000Y42691D01*
X12905Y42454D01*
X13361Y42149D01*
X14500Y41923D01*
X15639Y42149D01*
X16605Y42795D01*
X17395D01*
X18361Y42149D01*
X19500Y41923D01*
X20639Y42149D01*
X21605Y42795D01*
X22395D01*
X23361Y42149D01*
X24500Y41923D01*
X25639Y42149D01*
X26095Y42454D01*
X27000Y42691D01*
X27905Y42454D01*
X28361Y42149D01*
X29500Y41923D01*
X30639Y42149D01*
X31605Y42795D01*
X32395D01*
X33361Y42149D01*
X34500Y41923D01*
X35639Y42149D01*
X36095Y42454D01*
X37000Y42691D01*
X37905Y42454D01*
X38361Y42149D01*
X39500Y41923D01*
X40639Y42149D01*
X41605Y42795D01*
X42395D01*
X43361Y42149D01*
X44500Y41923D01*
X45639Y42149D01*
X46605Y42795D01*
X47395D01*
X48361Y42149D01*
X49500Y41923D01*
X50639Y42149D01*
X51605Y42795D01*
X52251Y43761D01*
X52477Y44900D01*
Y60100D01*
X52251Y61239D01*
X51972Y61656D01*
X52639Y62926D01*
X54596D01*
X54596Y62926D01*
X55677Y63141D01*
X56593Y63753D01*
X58109Y65269D01*
X58109Y65269D01*
X58721Y66185D01*
X58937Y67266D01*
Y68926D01*
X60926D01*
X61083Y68138D01*
X61695Y67222D01*
X63211Y65706D01*
X63211Y65706D01*
X64127Y65094D01*
X65208Y64879D01*
X69756D01*
X69756Y64879D01*
X70837Y65094D01*
X71753Y65706D01*
X73269Y67222D01*
X73269Y67222D01*
X73882Y68138D01*
X74038Y68926D01*
X100997D01*
X105883Y64040D01*
X105357Y62770D01*
X101230D01*
Y53230D01*
X106541D01*
Y18865D01*
X106541Y18865D01*
X106756Y17784D01*
X107368Y16868D01*
X111228Y13009D01*
X111228Y13008D01*
X111793Y12443D01*
X111306Y11270D01*
X98480D01*
Y7313D01*
X97649Y7148D01*
X96726Y6532D01*
X95198Y5003D01*
X94582Y4081D01*
X94365Y2992D01*
Y-10460D01*
X94582Y-11549D01*
X95198Y-12471D01*
X95989Y-13261D01*
X96911Y-13878D01*
X98000Y-14095D01*
X98480D01*
Y-17270D01*
X103155D01*
Y-24350D01*
X103372Y-25439D01*
X103989Y-26361D01*
X105230Y-27603D01*
Y-36420D01*
X108555D01*
Y-41580D01*
X105230D01*
Y-54420D01*
X108555D01*
Y-62150D01*
X108772Y-63239D01*
X109389Y-64162D01*
X113230Y-68003D01*
Y-69399D01*
X113918Y-71060D01*
X115190Y-72332D01*
X116851Y-73020D01*
X118649D01*
X120310Y-72332D01*
X121298Y-71345D01*
X124130D01*
Y-74920D01*
X136470D01*
Y-62080D01*
X124130D01*
Y-65655D01*
X121298D01*
X120310Y-64668D01*
X118649Y-63980D01*
X117253D01*
X114245Y-60972D01*
Y-54420D01*
X117570D01*
Y-41580D01*
X114245D01*
Y-36420D01*
X117570D01*
Y-23580D01*
X109253D01*
X108845Y-23172D01*
Y-17270D01*
X113520D01*
Y-7730D01*
X100055D01*
Y1675D01*
X104020D01*
X104295Y1730D01*
X113520D01*
Y9057D01*
X114693Y9543D01*
X115845Y8391D01*
Y3134D01*
X115845Y3134D01*
X116060Y2053D01*
X116672Y1137D01*
X121941Y-4132D01*
X122858Y-4744D01*
X123939Y-4960D01*
X123939Y-4960D01*
X127251D01*
X127918Y-6571D01*
X129190Y-7842D01*
X130851Y-8530D01*
X131892D01*
X131967Y-8636D01*
X131311Y-9905D01*
X131300D01*
X130211Y-10122D01*
X129825Y-10380D01*
X120830D01*
Y-22720D01*
X133670D01*
Y-15595D01*
X135480D01*
Y-29020D01*
X148182D01*
Y-30147D01*
X148946Y-31992D01*
X150358Y-33404D01*
X152204Y-34169D01*
X154201D01*
X156046Y-33404D01*
X157458Y-31992D01*
X158222Y-30147D01*
Y-28150D01*
X157735Y-26973D01*
X158516Y-25703D01*
X167142D01*
X168230Y-25487D01*
X169153Y-24870D01*
X179503Y-14520D01*
X180899D01*
X182560Y-13832D01*
X183832Y-12560D01*
X184520Y-10899D01*
Y-9101D01*
X183832Y-7440D01*
X182845Y-6452D01*
Y4250D01*
X182628Y5339D01*
X182012Y6262D01*
X163900Y24373D01*
X162977Y24990D01*
X161888Y25206D01*
X158516D01*
X157735Y26476D01*
X158222Y27653D01*
Y29650D01*
X157458Y31495D01*
X156046Y32908D01*
X154201Y33672D01*
X152204D01*
X150790Y33086D01*
X149520Y33728D01*
Y36520D01*
X135480D01*
Y23245D01*
X134210Y22622D01*
X133670Y23040D01*
Y30970D01*
X120830D01*
Y18630D01*
X129647D01*
X132579Y15698D01*
X133502Y15082D01*
X134590Y14865D01*
X135480D01*
Y9520D01*
X134772Y9379D01*
X133855Y8767D01*
X133855Y8767D01*
X132981Y7892D01*
X132649Y8030D01*
X130851D01*
X129190Y7342D01*
X127918Y6070D01*
X127595Y5291D01*
X126189Y5035D01*
X125263Y5871D01*
Y11123D01*
X125048Y12204D01*
X124436Y13120D01*
X124436Y13120D01*
X121913Y15643D01*
X121913Y15643D01*
X121913Y15643D01*
X115959Y21597D01*
Y53230D01*
X121270D01*
Y62770D01*
X115959D01*
Y66114D01*
X115959Y66114D01*
X115744Y67195D01*
X115132Y68111D01*
X105726Y77517D01*
X104810Y78129D01*
X103729Y78344D01*
X103729Y78344D01*
X19324D01*
X18243Y78129D01*
X17326Y77517D01*
X17326Y77517D01*
X8118Y68309D01*
X7506Y67392D01*
X7291Y66312D01*
X7291Y66311D01*
Y63327D01*
X7266Y63291D01*
X5905Y62834D01*
X5658Y62838D01*
X5639Y62851D01*
X4500Y63077D01*
X3361Y62851D01*
X2395Y62205D01*
X1750Y61239D01*
X1523Y60100D01*
Y45006D01*
X61Y43545D01*
X-1497D01*
X-2540Y44815D01*
X-2523Y44900D01*
Y60100D01*
X-2749Y61239D01*
X-3395Y62205D01*
X-4361Y62851D01*
X-5113Y63000D01*
X-7445Y65333D01*
X-8199Y65837D01*
X-9089Y66014D01*
X-9089Y66014D01*
X-11376D01*
X-13230Y67868D01*
Y77420D01*
X-25570D01*
Y73405D01*
X-25582Y73405D01*
X-25762Y73325D01*
X-27071D01*
X-27168Y73560D01*
X-28440Y74832D01*
X-30101Y75520D01*
X-31899D01*
X-33560Y74832D01*
X-34832Y73560D01*
X-35520Y71899D01*
Y70101D01*
X-34832Y68440D01*
X-33560Y67168D01*
X-31899Y66480D01*
X-30101D01*
X-28440Y67168D01*
X-27168Y68440D01*
X-27071Y68675D01*
X-25762D01*
X-25582Y68595D01*
X-25570Y68595D01*
Y64580D01*
X-16518D01*
X-13983Y62045D01*
X-13983Y62045D01*
X-13229Y61541D01*
X-12339Y61364D01*
X-10052D01*
X-8477Y59790D01*
Y46621D01*
X-9376Y45505D01*
X-9376Y45505D01*
X-24518D01*
X-33635Y54622D01*
Y63884D01*
X-33812Y64773D01*
X-34316Y65528D01*
X-34316Y65528D01*
X-49253Y80464D01*
X-50007Y80968D01*
X-50896Y81145D01*
D02*
G37*
G36*
X-154980Y53270D02*
X-175020D01*
Y44230D01*
X-154980D01*
Y53270D01*
D02*
G37*
G36*
Y28270D02*
X-175020D01*
Y21345D01*
X-176254D01*
X-176254Y21345D01*
X-177143Y21168D01*
X-177897Y20664D01*
X-177897Y20664D01*
X-180569Y17993D01*
X-181073Y17238D01*
X-181250Y16349D01*
X-181250Y16349D01*
Y900D01*
X-181250Y899D01*
X-181073Y10D01*
X-180569Y-745D01*
X-179045Y-2269D01*
Y-24232D01*
X-180569Y-25756D01*
X-181073Y-26510D01*
X-181250Y-27399D01*
X-181250Y-27399D01*
Y-42849D01*
X-181250Y-42849D01*
X-181073Y-43738D01*
X-180569Y-44493D01*
X-177897Y-47164D01*
X-177897Y-47164D01*
X-177143Y-47668D01*
X-176254Y-47845D01*
X-176254Y-47845D01*
X-175020D01*
Y-54770D01*
X-154980D01*
Y-47845D01*
X-153747D01*
X-153746Y-47845D01*
X-152857Y-47668D01*
X-152102Y-47164D01*
X-148690Y-43751D01*
X-147420Y-44274D01*
Y-51570D01*
X-134580D01*
Y-41545D01*
X-133146D01*
X-133146Y-41545D01*
X-132257Y-41368D01*
X-131503Y-40864D01*
X-129824Y-39185D01*
X-128560Y-39310D01*
X-128119Y-39969D01*
X-126459Y-41079D01*
X-124500Y-41468D01*
X-113500D01*
X-111541Y-41079D01*
X-109881Y-39969D01*
X-108771Y-38309D01*
X-108382Y-36350D01*
X-108771Y-34391D01*
X-109881Y-32731D01*
X-111541Y-31621D01*
X-113500Y-31232D01*
X-123692D01*
X-123905Y-30913D01*
X-123905Y-30913D01*
X-124817Y-30000D01*
X-123905Y-29087D01*
X-123905Y-29087D01*
X-123692Y-28768D01*
X-113500D01*
X-111541Y-28379D01*
X-109881Y-27269D01*
X-108771Y-25609D01*
X-108382Y-23650D01*
X-108771Y-21691D01*
X-109881Y-20031D01*
X-111541Y-18921D01*
X-113500Y-18532D01*
X-124500D01*
X-126459Y-18921D01*
X-128119Y-20031D01*
X-129229Y-21691D01*
X-129618Y-23650D01*
X-129348Y-25008D01*
X-129229Y-25609D01*
X-129993Y-26332D01*
X-130747Y-26836D01*
X-130747Y-26836D01*
X-133407Y-29496D01*
X-134580Y-29010D01*
Y-23830D01*
X-147420D01*
Y-33855D01*
X-148854D01*
X-148854Y-33855D01*
X-149743Y-34032D01*
X-150498Y-34536D01*
X-150498Y-34536D01*
X-153710Y-37749D01*
X-154980Y-37223D01*
Y-33230D01*
X-173560D01*
Y-29622D01*
X-172315Y-28377D01*
X-172315Y-28376D01*
X-172036Y-28098D01*
X-172036Y-28097D01*
X-171532Y-27343D01*
X-171355Y-26454D01*
X-171355Y-26453D01*
Y-24722D01*
X-171294Y-24710D01*
X-170540Y-24206D01*
X-170036Y-23702D01*
X-170036Y-23702D01*
X-169532Y-22948D01*
X-169355Y-22058D01*
X-169355Y-22058D01*
Y-20546D01*
X-169355Y-20546D01*
X-169532Y-19656D01*
X-169975Y-18782D01*
X-169532Y-17908D01*
X-169355Y-17018D01*
X-169355Y-17018D01*
Y-15506D01*
X-169355Y-15506D01*
X-169532Y-14616D01*
X-170036Y-13862D01*
X-170052Y-12868D01*
X-169875Y-11978D01*
X-169875Y-11978D01*
Y-10466D01*
X-169875Y-10466D01*
X-170052Y-9576D01*
X-170532Y-8766D01*
X-170138Y-7828D01*
X-169961Y-6938D01*
X-169961Y-6938D01*
Y-5426D01*
X-169961Y-5426D01*
X-170138Y-4536D01*
X-170641Y-3782D01*
X-170642Y-3782D01*
X-171145Y-3278D01*
X-171146Y-3278D01*
X-171355Y-3069D01*
Y-47D01*
X-171355Y-46D01*
X-171532Y843D01*
X-172036Y1597D01*
X-172036Y1597D01*
X-173560Y3122D01*
Y6730D01*
X-154980D01*
Y15770D01*
X-170210D01*
X-170252Y15979D01*
X-170756Y16733D01*
X-170998Y17500D01*
X-170756Y18267D01*
X-170252Y19021D01*
X-170210Y19230D01*
X-154980D01*
Y28270D01*
D02*
G37*
G36*
X70170Y59420D02*
X57830D01*
Y46580D01*
X61155D01*
Y42477D01*
X54900D01*
X53761Y42251D01*
X52795Y41605D01*
X52150Y40639D01*
X51923Y39500D01*
X52150Y38361D01*
X52795Y37395D01*
X53761Y36749D01*
X54900Y36523D01*
X70100D01*
X71239Y36749D01*
X72205Y37395D01*
X72851Y38361D01*
X74224Y38753D01*
X81155Y31822D01*
Y29670D01*
X77830D01*
Y16830D01*
X86147D01*
X86905Y16072D01*
Y11270D01*
X72808D01*
X72326Y12169D01*
X72234Y12438D01*
X72851Y13361D01*
X73077Y14500D01*
X72851Y15639D01*
X72546Y16095D01*
X72309Y17000D01*
X72546Y17905D01*
X72851Y18361D01*
X73077Y19500D01*
X72851Y20639D01*
X72205Y21605D01*
Y22395D01*
X72851Y23361D01*
X73077Y24500D01*
X72851Y25639D01*
X72546Y26095D01*
X72309Y27000D01*
X72546Y27905D01*
X72851Y28361D01*
X73077Y29500D01*
X72851Y30639D01*
X72205Y31605D01*
X71239Y32251D01*
X70100Y32477D01*
X54900D01*
X53761Y32251D01*
X52795Y31605D01*
X52150Y30639D01*
X51923Y29500D01*
X52150Y28361D01*
X52454Y27905D01*
X52691Y27000D01*
X52454Y26095D01*
X52150Y25639D01*
X51923Y24500D01*
X52150Y23361D01*
X52795Y22395D01*
Y21605D01*
X52150Y20639D01*
X51923Y19500D01*
X52150Y18361D01*
X52454Y17905D01*
X52691Y17000D01*
X52454Y16095D01*
X52150Y15639D01*
X51923Y14500D01*
X52150Y13361D01*
X52795Y12395D01*
Y11605D01*
X52150Y10639D01*
X51923Y9500D01*
X52150Y8361D01*
X52795Y7395D01*
Y6605D01*
X52150Y5639D01*
X51923Y4500D01*
X52150Y3361D01*
X52454Y2905D01*
X52691Y2000D01*
X52454Y1095D01*
X52150Y639D01*
X51923Y-500D01*
X52150Y-1639D01*
X52795Y-2605D01*
Y-3395D01*
X52150Y-4361D01*
X51923Y-5500D01*
X52150Y-6639D01*
X52454Y-7095D01*
X52691Y-8000D01*
X52454Y-8905D01*
X52150Y-9361D01*
X51923Y-10500D01*
X52150Y-11639D01*
X52795Y-12605D01*
Y-13395D01*
X52150Y-14361D01*
X51923Y-15500D01*
X52150Y-16639D01*
X52795Y-17605D01*
X53761Y-18251D01*
X54900Y-18477D01*
X70100D01*
X71239Y-18251D01*
X72205Y-17605D01*
X72301Y-17489D01*
X72480Y-17270D01*
X72480Y-17270D01*
X77155D01*
Y-25830D01*
X70580D01*
Y-34147D01*
X65145Y-39582D01*
X64899Y-39480D01*
X63101D01*
X61440Y-40168D01*
X60168Y-41440D01*
X59480Y-43101D01*
Y-44899D01*
X59582Y-45145D01*
X55572Y-49155D01*
X48420D01*
Y-45830D01*
X39603D01*
X37345Y-43572D01*
Y-39699D01*
X38126Y-39047D01*
X38687Y-38915D01*
X39500Y-39077D01*
X40639Y-38851D01*
X41605Y-38205D01*
X42395D01*
X43361Y-38851D01*
X44500Y-39077D01*
X45639Y-38851D01*
X46605Y-38205D01*
X47395D01*
X48361Y-38851D01*
X49500Y-39077D01*
X50639Y-38851D01*
X51605Y-38205D01*
X52251Y-37239D01*
X52477Y-36100D01*
Y-20900D01*
X52251Y-19761D01*
X51605Y-18795D01*
X50639Y-18149D01*
X49500Y-17923D01*
X48361Y-18149D01*
X47395Y-18795D01*
X46605D01*
X45639Y-18149D01*
X44500Y-17923D01*
X43361Y-18149D01*
X42395Y-18795D01*
X41605D01*
X40639Y-18149D01*
X39500Y-17923D01*
X38361Y-18149D01*
X37905Y-18454D01*
X37000Y-18691D01*
X36095Y-18454D01*
X35639Y-18149D01*
X34500Y-17923D01*
X33361Y-18149D01*
X32395Y-18795D01*
X31749Y-19761D01*
X31523Y-20900D01*
Y-36100D01*
X31608Y-36529D01*
X31565Y-36634D01*
X31567Y-36641D01*
X31565Y-36647D01*
X31585Y-39217D01*
X31655Y-39384D01*
Y-44750D01*
X31872Y-45839D01*
X32489Y-46761D01*
X33709Y-47982D01*
X33223Y-49155D01*
X24667D01*
Y-44808D01*
X20920D01*
X20534Y-43538D01*
X20594Y-43498D01*
X25143Y-38949D01*
X25639Y-38851D01*
X26605Y-38205D01*
X27251Y-37239D01*
X27477Y-36100D01*
Y-20900D01*
X27251Y-19761D01*
X26605Y-18795D01*
X25639Y-18149D01*
X24500Y-17923D01*
X23361Y-18149D01*
X22395Y-18795D01*
X21605D01*
X20639Y-18149D01*
X19500Y-17923D01*
X18361Y-18149D01*
X17395Y-18795D01*
X16605D01*
X15639Y-18149D01*
X14500Y-17923D01*
X13361Y-18149D01*
X12905Y-18454D01*
X12000Y-18691D01*
X11095Y-18454D01*
X10639Y-18149D01*
X9500Y-17923D01*
X8361Y-18149D01*
X7395Y-18795D01*
X6605D01*
X5639Y-18149D01*
X4500Y-17923D01*
X3361Y-18149D01*
X2905Y-18454D01*
X2000Y-18691D01*
X1095Y-18454D01*
X639Y-18149D01*
X-500Y-17923D01*
X-1639Y-18149D01*
X-2605Y-18795D01*
X-3395D01*
X-4361Y-18149D01*
X-5500Y-17923D01*
X-6639Y-18149D01*
X-7605Y-18795D01*
X-8251Y-19761D01*
X-8477Y-20900D01*
Y-36100D01*
X-8418Y-36395D01*
X-14957Y-42934D01*
X-16130Y-42448D01*
Y-40580D01*
X-19455D01*
Y-35420D01*
X-16130D01*
Y-22580D01*
X-19455D01*
Y-18477D01*
X-10900D01*
X-9761Y-18251D01*
X-8795Y-17605D01*
X-8149Y-16639D01*
X-7923Y-15500D01*
X-8149Y-14361D01*
X-8795Y-13395D01*
X-9761Y-12749D01*
X-10900Y-12523D01*
X-26100D01*
X-27239Y-12749D01*
X-28205Y-13395D01*
X-28851Y-14361D01*
X-29077Y-15500D01*
X-28851Y-16639D01*
X-28205Y-17605D01*
X-27239Y-18251D01*
X-26100Y-18477D01*
X-25145D01*
Y-22580D01*
X-28470D01*
Y-35420D01*
X-25145D01*
Y-40580D01*
X-28470D01*
Y-53420D01*
X-24845D01*
Y-55452D01*
X-25832Y-56440D01*
X-26520Y-58101D01*
Y-59899D01*
X-25832Y-61560D01*
X-24560Y-62832D01*
X-22899Y-63520D01*
X-21101D01*
X-19440Y-62832D01*
X-18168Y-61560D01*
X-17480Y-59899D01*
Y-58101D01*
X-18168Y-56440D01*
X-19155Y-55452D01*
Y-53420D01*
X-16130D01*
Y-49845D01*
X-15000D01*
X-13911Y-49628D01*
X-12989Y-49012D01*
X-3538Y-39561D01*
X-3276Y-39168D01*
X-2908Y-38640D01*
X-1665Y-38833D01*
X-1639Y-38851D01*
X-500Y-39077D01*
X639Y-38851D01*
X1095Y-38546D01*
X2000Y-38309D01*
X2905Y-38546D01*
X3361Y-38851D01*
X4500Y-39077D01*
X5639Y-38851D01*
X6605Y-38205D01*
X7395D01*
X8361Y-38851D01*
X9500Y-39077D01*
X10192Y-38939D01*
X10688Y-40136D01*
X10577Y-40210D01*
X10576Y-40210D01*
X5979Y-44808D01*
X-3073D01*
Y-57648D01*
X692D01*
X692Y-57660D01*
X772Y-57840D01*
Y-62976D01*
X692Y-63156D01*
X692Y-63169D01*
X-3877D01*
Y-76009D01*
X8463D01*
Y-63169D01*
X5502D01*
X5501Y-63156D01*
X5421Y-62976D01*
Y-57840D01*
X5501Y-57660D01*
X5502Y-57648D01*
X9267D01*
Y-48095D01*
X11153Y-46209D01*
X12327Y-46695D01*
Y-57648D01*
X24667D01*
Y-54845D01*
X35580D01*
Y-58170D01*
X48420D01*
Y-54845D01*
X56750D01*
X57839Y-54628D01*
X58762Y-54012D01*
X64253Y-48520D01*
X64899D01*
X66560Y-47832D01*
X67832Y-46560D01*
X68520Y-44899D01*
Y-44253D01*
X74603Y-38170D01*
X83420D01*
Y-25830D01*
X82845D01*
Y-17270D01*
X87520D01*
Y-11753D01*
X91762Y-7512D01*
X92378Y-6589D01*
X92595Y-5500D01*
Y17250D01*
X92378Y18339D01*
X91762Y19261D01*
X90170Y20853D01*
Y29670D01*
X86845D01*
Y33000D01*
X86628Y34089D01*
X86011Y35011D01*
X70170Y50853D01*
Y59420D01*
D02*
G37*
G36*
X151870Y-62080D02*
X139530D01*
Y-74920D01*
X151870D01*
Y-71595D01*
X154452D01*
X155440Y-72582D01*
X157101Y-73270D01*
X158899D01*
X160560Y-72582D01*
X161832Y-71310D01*
X162520Y-69649D01*
Y-67851D01*
X161832Y-66190D01*
X160560Y-64918D01*
X158899Y-64230D01*
X157101D01*
X155440Y-64918D01*
X154452Y-65905D01*
X151870D01*
Y-62080D01*
D02*
G37*
%LPD*%
G36*
X-23989Y69480D02*
X-24004Y69624D01*
X-24051Y69754D01*
X-24129Y69868D01*
X-24237Y69966D01*
X-24377Y70050D01*
X-24547Y70118D01*
X-24749Y70172D01*
X-24981Y70210D01*
X-25245Y70232D01*
X-25540Y70240D01*
Y71760D01*
X-25245Y71768D01*
X-24981Y71790D01*
X-24749Y71828D01*
X-24547Y71882D01*
X-24377Y71950D01*
X-24237Y72034D01*
X-24129Y72132D01*
X-24051Y72246D01*
X-24004Y72376D01*
X-23989Y72520D01*
Y69480D01*
D02*
G37*
G36*
X-36624Y20145D02*
X-36754Y20099D01*
X-36868Y20021D01*
X-36966Y19913D01*
X-37050Y19773D01*
X-37118Y19603D01*
X-37172Y19401D01*
X-37210Y19169D01*
X-37232Y18905D01*
X-37240Y18611D01*
X-38760D01*
X-38768Y18905D01*
X-38790Y19169D01*
X-38828Y19401D01*
X-38882Y19603D01*
X-38950Y19773D01*
X-39034Y19913D01*
X-39132Y20021D01*
X-39246Y20099D01*
X-39376Y20145D01*
X-39520Y20161D01*
X-36480D01*
X-36624Y20145D01*
D02*
G37*
G36*
X-37232Y13101D02*
X-37210Y12842D01*
X-37172Y12614D01*
X-37118Y12417D01*
X-37050Y12249D01*
X-36966Y12113D01*
X-36868Y12006D01*
X-36754Y11930D01*
X-36624Y11885D01*
X-36480Y11869D01*
X-39520D01*
X-39376Y11885D01*
X-39246Y11930D01*
X-39132Y12006D01*
X-39034Y12113D01*
X-38950Y12249D01*
X-38882Y12417D01*
X-38828Y12614D01*
X-38790Y12842D01*
X-38768Y13101D01*
X-38760Y13390D01*
X-37240D01*
X-37232Y13101D01*
D02*
G37*
G36*
X-33396Y8376D02*
X-33349Y8246D01*
X-33271Y8132D01*
X-33163Y8034D01*
X-33023Y7950D01*
X-32853Y7882D01*
X-32651Y7828D01*
X-32419Y7790D01*
X-32155Y7768D01*
X-31860Y7760D01*
Y6240D01*
X-32155Y6232D01*
X-32419Y6210D01*
X-32651Y6172D01*
X-32853Y6118D01*
X-33023Y6050D01*
X-33163Y5966D01*
X-33271Y5868D01*
X-33349Y5754D01*
X-33396Y5624D01*
X-33411Y5480D01*
Y8520D01*
X-33396Y8376D01*
D02*
G37*
G36*
X-27314Y6595D02*
X-26777Y6142D01*
X-26540Y5978D01*
X-26323Y5855D01*
X-26128Y5774D01*
X-25952Y5735D01*
X-25798Y5737D01*
X-25664Y5781D01*
X-25551Y5866D01*
X-27390Y3966D01*
X-27426Y4105D01*
X-27480Y4252D01*
X-27551Y4405D01*
X-27641Y4565D01*
X-27748Y4733D01*
X-27873Y4907D01*
X-28177Y5276D01*
X-28355Y5471D01*
X-28552Y5673D01*
X-27613Y6884D01*
X-27314Y6595D01*
D02*
G37*
G36*
X-26634Y-1790D02*
X-26798Y-1689D01*
X-26973Y-1599D01*
X-27159Y-1520D01*
X-27355Y-1451D01*
X-27562Y-1392D01*
X-27780Y-1345D01*
X-28009Y-1308D01*
X-28498Y-1265D01*
X-28759Y-1260D01*
Y260D01*
X-28498Y265D01*
X-28009Y308D01*
X-27780Y345D01*
X-27562Y393D01*
X-27355Y451D01*
X-27159Y520D01*
X-26973Y599D01*
X-26798Y689D01*
X-26634Y790D01*
Y-1790D01*
D02*
G37*
G36*
X-111377Y-5666D02*
X-111369Y-6260D01*
X-111253Y-7703D01*
X-111184Y-8072D01*
X-111099Y-8385D01*
X-110998Y-8642D01*
X-110883Y-8842D01*
X-110751Y-8986D01*
X-110605Y-9074D01*
X-114713Y-7481D01*
X-114562Y-7517D01*
X-114426Y-7500D01*
X-114307Y-7432D01*
X-114203Y-7312D01*
X-114116Y-7139D01*
X-114044Y-6915D01*
X-113988Y-6638D01*
X-113948Y-6310D01*
X-113925Y-5929D01*
X-113917Y-5497D01*
X-111377Y-5666D01*
D02*
G37*
G36*
X-57484Y-8009D02*
X-57723Y-8259D01*
X-58093Y-8713D01*
X-58224Y-8918D01*
X-58318Y-9107D01*
X-58376Y-9281D01*
X-58397Y-9440D01*
X-58382Y-9584D01*
X-58331Y-9713D01*
X-58243Y-9826D01*
X-60376Y-7693D01*
X-60263Y-7781D01*
X-60134Y-7832D01*
X-59990Y-7847D01*
X-59832Y-7826D01*
X-59657Y-7768D01*
X-59468Y-7674D01*
X-59264Y-7543D01*
X-59044Y-7377D01*
X-58809Y-7174D01*
X-58559Y-6934D01*
X-57484Y-8009D01*
D02*
G37*
G36*
X-59691Y-44545D02*
X-59684Y-44907D01*
X-59625Y-45536D01*
X-59574Y-45802D01*
X-59507Y-46035D01*
X-59427Y-46236D01*
X-59331Y-46405D01*
X-59220Y-46541D01*
X-59095Y-46645D01*
X-58956Y-46717D01*
X-61972Y-45581D01*
X-61827Y-45617D01*
X-61698Y-45612D01*
X-61584Y-45565D01*
X-61485Y-45476D01*
X-61402Y-45346D01*
X-61333Y-45174D01*
X-61280Y-44960D01*
X-61242Y-44705D01*
X-61219Y-44407D01*
X-61212Y-44068D01*
X-59691Y-44545D01*
D02*
G37*
G36*
X-80385Y-67701D02*
X-80308Y-67917D01*
X-80180Y-68108D01*
X-80000Y-68273D01*
X-79768Y-68412D01*
X-79486Y-68527D01*
X-79151Y-68616D01*
X-78785Y-68676D01*
X-78648Y-68655D01*
X-78388Y-68597D01*
X-78143Y-68523D01*
X-77913Y-68431D01*
X-77698Y-68323D01*
X-77498Y-68199D01*
X-77313Y-68058D01*
X-77142Y-67900D01*
Y-72100D01*
X-77313Y-71942D01*
X-77498Y-71801D01*
X-77698Y-71677D01*
X-77913Y-71569D01*
X-78143Y-71477D01*
X-78388Y-71403D01*
X-78648Y-71345D01*
X-78785Y-71324D01*
X-79151Y-71384D01*
X-79486Y-71473D01*
X-79768Y-71588D01*
X-80000Y-71727D01*
X-80180Y-71892D01*
X-80308Y-72083D01*
X-80385Y-72299D01*
X-80411Y-72540D01*
Y-67460D01*
X-80385Y-67701D01*
D02*
G37*
G36*
X-171551Y20772D02*
X-171569Y20746D01*
X-171586Y20702D01*
X-171600Y20641D01*
X-171612Y20563D01*
X-171630Y20354D01*
X-171639Y20076D01*
X-171640Y19910D01*
X-173160D01*
X-173161Y20076D01*
X-173199Y20641D01*
X-173214Y20702D01*
X-173230Y20746D01*
X-173249Y20772D01*
X-173270Y20780D01*
X-171530D01*
X-171551Y20772D01*
D02*
G37*
G36*
X-171639Y14919D02*
X-171600Y14333D01*
X-171586Y14270D01*
X-171569Y14225D01*
X-171551Y14198D01*
X-171530Y14189D01*
X-173270D01*
X-173249Y14198D01*
X-173230Y14225D01*
X-173214Y14270D01*
X-173199Y14333D01*
X-173187Y14414D01*
X-173169Y14630D01*
X-173160Y15090D01*
X-171640D01*
X-171639Y14919D01*
D02*
G37*
G36*
X-156751Y-40728D02*
X-156770Y-40754D01*
X-156786Y-40798D01*
X-156801Y-40859D01*
X-156813Y-40937D01*
X-156831Y-41146D01*
X-156839Y-41424D01*
X-156840Y-41590D01*
X-158360D01*
X-158362Y-41424D01*
X-158400Y-40859D01*
X-158414Y-40798D01*
X-158431Y-40754D01*
X-158449Y-40728D01*
X-158470Y-40719D01*
X-156730D01*
X-156751Y-40728D01*
D02*
G37*
G36*
X-171551D02*
X-171569Y-40754D01*
X-171586Y-40798D01*
X-171600Y-40859D01*
X-171612Y-40937D01*
X-171630Y-41146D01*
X-171639Y-41424D01*
X-171640Y-41590D01*
X-173160D01*
X-173161Y-41424D01*
X-173199Y-40859D01*
X-173214Y-40798D01*
X-173230Y-40754D01*
X-173249Y-40728D01*
X-173270Y-40719D01*
X-171530D01*
X-171551Y-40728D01*
D02*
G37*
G36*
X-156839Y-46582D02*
X-156801Y-47167D01*
X-156786Y-47230D01*
X-156770Y-47275D01*
X-156751Y-47302D01*
X-156730Y-47311D01*
X-158470D01*
X-158449Y-47302D01*
X-158431Y-47275D01*
X-158414Y-47230D01*
X-158400Y-47167D01*
X-158388Y-47086D01*
X-158370Y-46870D01*
X-158360Y-46410D01*
X-156840D01*
X-156839Y-46582D01*
D02*
G37*
G36*
X-171639D02*
X-171600Y-47167D01*
X-171586Y-47230D01*
X-171569Y-47275D01*
X-171551Y-47302D01*
X-171530Y-47311D01*
X-173270D01*
X-173249Y-47302D01*
X-173230Y-47275D01*
X-173214Y-47230D01*
X-173199Y-47167D01*
X-173187Y-47086D01*
X-173169Y-46870D01*
X-173160Y-46410D01*
X-171640D01*
X-171639Y-46582D01*
D02*
G37*
G36*
X35786Y-36665D02*
X35783Y-36747D01*
X35770Y-39204D01*
X33230D01*
X33210Y-36634D01*
X35790D01*
X35786Y-36665D01*
D02*
G37*
G36*
X4472Y-56112D02*
X4343Y-56158D01*
X4229Y-56234D01*
X4130Y-56340D01*
X4047Y-56477D01*
X3978Y-56645D01*
X3925Y-56842D01*
X3887Y-57070D01*
X3864Y-57329D01*
X3857Y-57617D01*
X2337D01*
X2329Y-57329D01*
X2306Y-57070D01*
X2268Y-56842D01*
X2215Y-56645D01*
X2147Y-56477D01*
X2063Y-56340D01*
X1964Y-56234D01*
X1850Y-56158D01*
X1721Y-56112D01*
X1577Y-56097D01*
X4617D01*
X4472Y-56112D01*
D02*
G37*
G36*
X3864Y-63488D02*
X3887Y-63747D01*
X3925Y-63974D01*
X3978Y-64172D01*
X4047Y-64339D01*
X4130Y-64476D01*
X4229Y-64583D01*
X4343Y-64658D01*
X4472Y-64704D01*
X4617Y-64719D01*
X1577D01*
X1721Y-64704D01*
X1850Y-64658D01*
X1964Y-64583D01*
X2063Y-64476D01*
X2147Y-64339D01*
X2215Y-64172D01*
X2268Y-63974D01*
X2306Y-63747D01*
X2329Y-63488D01*
X2337Y-63199D01*
X3857D01*
X3864Y-63488D01*
D02*
G37*
D13*
X72788Y71750D02*
X79776D01*
X71272Y70234D02*
X72788Y71750D01*
X71272Y69219D02*
Y70234D01*
X69756Y67703D02*
X71272Y69219D01*
X65208Y67703D02*
X69756D01*
X63692Y69219D02*
X65208Y67703D01*
X63692Y69219D02*
Y70234D01*
X62176Y71750D02*
X63692Y70234D01*
X57628Y71750D02*
X62176D01*
X56112Y70234D02*
X57628Y71750D01*
X56112Y67266D02*
Y70234D01*
X54596Y65750D02*
X56112Y67266D01*
X50048Y65750D02*
X54596D01*
X48532Y67266D02*
X50048Y65750D01*
X48532Y67266D02*
Y70234D01*
X47016Y71750D02*
X48532Y70234D01*
X42468Y71750D02*
X47016D01*
X40952Y70234D02*
X42468Y71750D01*
X40952Y67266D02*
Y70234D01*
X39436Y65750D02*
X40952Y67266D01*
X34888Y65750D02*
X39436D01*
X33372Y67266D02*
X34888Y65750D01*
X33372Y67266D02*
Y70234D01*
X31856Y71750D02*
X33372Y70234D01*
X23026Y71750D02*
X31856D01*
X20885D02*
X23026D01*
X79776D02*
X102167D01*
X13885Y64750D02*
X20885Y71750D01*
X10115Y66312D02*
X19324Y75520D01*
X10115Y62291D02*
Y66312D01*
X9557Y61733D02*
X10115Y62291D01*
X9557Y52557D02*
Y61733D01*
X9500Y52500D02*
X9557Y52557D01*
X142020Y6770D02*
X142500Y7250D01*
X135852Y6770D02*
X142020D01*
X142980Y-3230D02*
X149147D01*
X142500Y-2750D02*
X142980Y-3230D01*
X132592Y3510D02*
X135852Y6770D01*
X128928Y1635D02*
X130803Y3510D01*
X131750D02*
X132592D01*
X130803D02*
X131750D01*
X149147Y-3230D02*
X149257Y-3341D01*
X153580D02*
X154250Y-4010D01*
X149257Y-3341D02*
X153580D01*
X116750Y57750D02*
Y58000D01*
X115000Y56000D02*
X116750Y57750D01*
X114600Y56000D02*
X115000D01*
X113135Y54535D02*
X114600Y56000D01*
X122439Y4696D02*
X125500Y1635D01*
X128928D01*
X113135Y20427D02*
X119916Y13646D01*
Y13646D02*
Y13646D01*
X113135Y20427D02*
Y54535D01*
X122439Y4696D02*
Y11123D01*
X119916Y13646D02*
X122439Y11123D01*
X13885Y62291D02*
Y64750D01*
Y62291D02*
X14443Y61733D01*
Y52557D02*
X14500Y52500D01*
X14443Y52557D02*
Y61733D01*
X149257Y2840D02*
X153580D01*
X154250Y3510D01*
X149147Y2730D02*
X149257Y2840D01*
X142500Y2250D02*
X142980Y2730D01*
X149147D01*
X130803Y-4010D02*
X131750D01*
X128928Y-2135D02*
X130803Y-4010D01*
X142020Y-7270D02*
X142500Y-7750D01*
X135852Y-7270D02*
X142020D01*
X131750Y-4010D02*
X132592D01*
X135852Y-7270D01*
X105750Y57750D02*
Y58000D01*
Y57750D02*
X107500Y56000D01*
X107900D01*
X109365Y54535D01*
X118669Y3134D02*
X123939Y-2135D01*
X128928D01*
X118669Y3134D02*
Y9561D01*
X109365Y18865D02*
Y54535D01*
Y18865D02*
X113225Y15005D01*
Y15005D02*
X118669Y9561D01*
X113225Y15005D02*
Y15005D01*
X105750Y58000D02*
Y58250D01*
X107500Y60000D01*
X107900D01*
X109365Y61465D01*
Y64552D01*
X102167Y71750D02*
X109365Y64552D01*
X116750Y58000D02*
Y58250D01*
X115000Y60000D02*
X116750Y58250D01*
X114600Y60000D02*
X115000D01*
X19324Y75520D02*
X103729D01*
X113135Y61465D02*
Y66114D01*
X103729Y75520D02*
X113135Y66114D01*
Y61465D02*
X114600Y60000D01*
D15*
X117750Y-68500D02*
X130300D01*
X82750Y-12500D02*
X89750Y-5500D01*
X84000Y23000D02*
X89750Y17250D01*
Y-5500D02*
Y17250D01*
X111400Y-62150D02*
X117750Y-68500D01*
X111400Y-62150D02*
Y-48000D01*
Y-30000D01*
Y-29750D01*
X106000Y-24350D02*
Y-12500D01*
Y-24350D02*
X111400Y-29750D01*
X98000Y-11250D02*
X104750D01*
X106000Y-12500D01*
X97210Y-10460D02*
X98000Y-11250D01*
X98738Y4520D02*
X104020D01*
X97210Y2992D02*
X98738Y4520D01*
X97210Y-10460D02*
Y2992D01*
X64000Y52750D02*
Y53000D01*
X104020Y4520D02*
X106000Y6500D01*
X134590Y17710D02*
X142040D01*
X127500Y24800D02*
X134590Y17710D01*
X127250Y24800D02*
X127500D01*
X142040Y17710D02*
X142500Y17250D01*
X127500Y-16550D02*
X131300Y-12750D01*
X142500D01*
X127250Y-16550D02*
X127500D01*
X143891Y-22858D02*
X167142D01*
X180000Y-10000D01*
X142500Y-24250D02*
X143891Y-22858D01*
X180000Y-10000D02*
Y4250D01*
X161888Y22362D02*
X180000Y4250D01*
X142500Y23750D02*
X143888Y22362D01*
X161888D01*
X145950Y-68750D02*
X158000D01*
X145700Y-68500D02*
X145950Y-68750D01*
X-22000Y-59000D02*
Y-47300D01*
X-22300Y-47000D02*
X-22000Y-47300D01*
X67630Y49370D02*
X84000Y33000D01*
Y23000D02*
Y33000D01*
X67380Y49370D02*
X67630D01*
X64000Y52750D02*
X67380Y49370D01*
X64000Y39620D02*
Y52750D01*
Y53000D01*
X-103000Y-8000D02*
Y4150D01*
X-101400Y5750D01*
X-112647Y-5497D02*
X-103000Y4150D01*
X-114707Y-10950D02*
X-112647Y-8890D01*
X-101400Y5750D02*
Y6000D01*
X-112647Y-8890D02*
Y-5497D01*
X-119000Y-10950D02*
X-114707D01*
X-85000Y-68000D02*
X-83000Y-70000D01*
X-75000D01*
X-85000Y-68000D02*
Y-36150D01*
X-72500Y-23650D01*
X-85000Y-68000D02*
X-85000Y-68000D01*
X-72500Y-23650D02*
X-67000D01*
X-60600Y66000D02*
X-53400Y58800D01*
Y25000D02*
Y58800D01*
X-101400Y6000D02*
Y6250D01*
X-82650Y25000D02*
X-53400D01*
X-101400Y6250D02*
X-82650Y25000D01*
X64000Y-44000D02*
X64750D01*
X76750Y-32000D01*
X56750Y-52000D02*
X64000Y-44750D01*
X77000Y-32000D02*
X80000Y-29000D01*
Y-12500D01*
X76750Y-32000D02*
X77000D01*
X64000Y-44750D02*
Y-44000D01*
X42000Y-52000D02*
X56750D01*
X41750D02*
X42000D01*
X-5550Y-37550D02*
Y-28550D01*
X-22300Y-47000D02*
X-15000D01*
X-5550Y-37550D01*
Y-28550D02*
X-5500Y-28500D01*
X-22300Y-47000D02*
Y-29000D01*
Y-15620D02*
X-22180Y-15500D01*
X-22300Y-29000D02*
Y-15620D01*
X-22180Y-15500D02*
X-18500D01*
X19269Y-52000D02*
X41750D01*
X34500Y-44750D02*
Y-28500D01*
Y-44750D02*
X41750Y-52000D01*
X18497Y-51228D02*
X19269Y-52000D01*
X80000Y-12500D02*
X82750D01*
X62500Y39500D02*
X63880D01*
X64000Y39620D01*
D16*
X127250Y-16550D02*
D03*
Y-31950D02*
D03*
Y40200D02*
D03*
Y24800D02*
D03*
X42000Y-52000D02*
D03*
Y-67400D02*
D03*
X77000Y-32000D02*
D03*
Y-47400D02*
D03*
X-141000Y-45400D02*
D03*
Y-30000D02*
D03*
D17*
X145700Y-68500D02*
D03*
X130300D02*
D03*
X2293Y-69589D02*
D03*
X17693D02*
D03*
X-19400Y71000D02*
D03*
X-4000D02*
D03*
X-86000Y6000D02*
D03*
X-101400D02*
D03*
X-53400Y25000D02*
D03*
X-38000D02*
D03*
X-53400Y7000D02*
D03*
X-38000D02*
D03*
X64000Y53000D02*
D03*
X79400D02*
D03*
X-22300Y-29000D02*
D03*
X-37700D02*
D03*
X111400Y-48000D02*
D03*
X96000D02*
D03*
X111400Y-30000D02*
D03*
X96000D02*
D03*
X84000Y23250D02*
D03*
X99400D02*
D03*
X-85000Y-68000D02*
D03*
X-100400D02*
D03*
X-22300Y-47000D02*
D03*
X-37700D02*
D03*
X18497Y-51228D02*
D03*
X3097D02*
D03*
D18*
X97250Y58000D02*
D03*
X105750D02*
D03*
X116750D02*
D03*
X125250D02*
D03*
D19*
X-191500Y67250D02*
D03*
Y-7250D02*
D03*
Y-19250D02*
D03*
Y-68750D02*
D03*
D20*
X-165000Y36250D02*
D03*
Y48750D02*
D03*
Y23750D02*
D03*
Y11250D02*
D03*
Y-37750D02*
D03*
Y-50250D02*
D03*
D21*
X-5500Y-28500D02*
D03*
X-500D02*
D03*
X4500D02*
D03*
X9500D02*
D03*
X14500D02*
D03*
X19500D02*
D03*
X24500D02*
D03*
X29500D02*
D03*
X34500D02*
D03*
X39500D02*
D03*
X44500D02*
D03*
X49500D02*
D03*
Y52500D02*
D03*
X44500D02*
D03*
X39500D02*
D03*
X34500D02*
D03*
X29500D02*
D03*
X24500D02*
D03*
X19500D02*
D03*
X14500D02*
D03*
X9500D02*
D03*
X4500D02*
D03*
X-500D02*
D03*
X-5500D02*
D03*
D22*
X62500Y-15500D02*
D03*
Y-10500D02*
D03*
Y-5500D02*
D03*
Y-500D02*
D03*
Y4500D02*
D03*
Y9500D02*
D03*
Y14500D02*
D03*
Y19500D02*
D03*
Y24500D02*
D03*
Y29500D02*
D03*
Y34500D02*
D03*
Y39500D02*
D03*
X-18500D02*
D03*
Y34500D02*
D03*
Y29500D02*
D03*
Y24500D02*
D03*
Y19500D02*
D03*
Y14500D02*
D03*
Y9500D02*
D03*
Y4500D02*
D03*
Y-500D02*
D03*
Y-5500D02*
D03*
Y-10500D02*
D03*
Y-15500D02*
D03*
D23*
X142500Y31750D02*
D03*
Y23750D02*
D03*
Y-24250D02*
D03*
Y-32250D02*
D03*
D24*
Y17250D02*
D03*
Y12250D02*
D03*
Y7250D02*
D03*
Y2250D02*
D03*
Y-2750D02*
D03*
Y-7750D02*
D03*
Y-12750D02*
D03*
Y-17750D02*
D03*
D25*
X-67000Y-49050D02*
D03*
Y-36350D02*
D03*
Y-23650D02*
D03*
Y-10950D02*
D03*
X-119000Y-49050D02*
D03*
Y-36350D02*
D03*
Y-23650D02*
D03*
Y-10950D02*
D03*
D26*
X106000Y-12500D02*
D03*
Y-3000D02*
D03*
Y6500D02*
D03*
X80000D02*
D03*
Y-12500D02*
D03*
D43*
X-173680Y-4032D02*
Y-215D01*
Y-4032D02*
X-172789Y-4922D01*
X-172789D01*
X-172285Y-5426D01*
Y-6938D02*
Y-5426D01*
X-172789Y-7442D02*
X-172285Y-6938D01*
X-173426Y-7442D02*
X-172789D01*
X-173930Y-7946D02*
X-173426Y-7442D01*
X-173930Y-9458D02*
Y-7946D01*
Y-9458D02*
X-173426Y-9962D01*
X-172703D01*
X-172200Y-10466D01*
Y-11978D02*
Y-10466D01*
X-172703Y-12482D02*
X-172200Y-11978D01*
X-173426Y-12482D02*
X-172703D01*
X-173930Y-12986D02*
X-173426Y-12482D01*
X-173930Y-14498D02*
Y-12986D01*
Y-14498D02*
X-173426Y-15002D01*
X-172184D01*
X-171680Y-15506D01*
Y-17018D02*
Y-15506D01*
X-172184Y-17522D02*
X-171680Y-17018D01*
X-173426Y-17522D02*
X-172184D01*
X-173930Y-18026D02*
X-173426Y-17522D01*
X-173930Y-19538D02*
Y-18026D01*
Y-19538D02*
X-173426Y-20042D01*
X-172184D01*
X-171680Y-20546D01*
Y-22058D02*
Y-20546D01*
X-172184Y-22562D02*
X-171680Y-22058D01*
X-172789Y-22562D02*
X-172184D01*
X-173680Y-23452D02*
X-172789Y-22562D01*
X-173680Y-26454D02*
Y-23452D01*
X-173959Y-26733D02*
X-173680Y-26454D01*
X-175885Y-28658D02*
X-173959Y-26733D01*
X-173680Y-215D02*
Y-46D01*
X-175885Y2158D02*
X-173680Y-46D01*
X-175885Y2158D02*
Y15090D01*
X-19400Y70750D02*
X-12339Y63689D01*
X-9089D01*
X-5918Y52918D02*
X-5500Y52500D01*
X-9089Y63689D02*
X-5918Y60518D01*
X-31000Y71000D02*
X-19400D01*
X-5918Y52918D02*
Y60518D01*
X-19400Y70750D02*
Y71000D01*
X-101620Y75780D02*
X-52156D01*
X-39000Y52400D02*
Y62624D01*
X-52156Y75780D02*
X-39000Y62624D01*
X-50896Y78820D02*
X-35960Y63884D01*
Y53659D02*
Y63884D01*
X-123980Y78820D02*
X-50896D01*
X-39000Y52400D02*
X-26100Y39500D01*
X-35960Y53659D02*
X-25481Y43180D01*
X-9376D02*
X-7416Y41220D01*
X-25481Y43180D02*
X-9376D01*
X-26100Y39500D02*
X-18500D01*
X-7416Y41220D02*
X1024D01*
X4500Y44696D01*
X-136800Y66000D02*
X-123980Y78820D01*
X-111400Y66000D02*
X-101620Y75780D01*
X4500Y44696D02*
Y52500D01*
X-125548Y-33819D02*
Y-32556D01*
X-126585Y-31520D02*
X-125548Y-32556D01*
X-123017Y-36350D02*
X-119000D01*
X-125548Y-33819D02*
X-123017Y-36350D01*
X-127844Y-31520D02*
X-126585D01*
X-130280Y-33956D02*
X-127844Y-31520D01*
X-130280Y-36354D02*
Y-33956D01*
X-136110Y-39220D02*
X-133146D01*
X-130280Y-36354D01*
X-137000Y-40110D02*
X-136110Y-39220D01*
X-140890Y-45400D02*
X-137000Y-41510D01*
Y-40110D01*
X-145000Y-41510D02*
Y-40110D01*
X-141000Y-45400D02*
X-140890D01*
X-141110D02*
X-141000D01*
X-147594Y-39220D02*
X-145890D01*
X-149964Y-41590D02*
X-147594Y-39220D01*
X-145000Y-41510D02*
X-141110Y-45400D01*
X-145890Y-39220D02*
X-145000Y-40110D01*
X-149964Y-41738D02*
Y-41590D01*
X-153746Y-45520D02*
X-149964Y-41738D01*
X-156710Y-45520D02*
X-153746D01*
X-157600Y-46410D02*
X-156710Y-45520D01*
X-159840Y-50250D02*
X-157600Y-48010D01*
Y-46410D01*
X-165000Y-50250D02*
X-159840D01*
X-125548Y-26181D02*
X-123017Y-23650D01*
X-119000D01*
X-126585Y-28480D02*
X-125548Y-27443D01*
Y-26181D01*
X-129103Y-28480D02*
X-126585D01*
X-141000Y-30000D02*
X-140890D01*
X-141110D02*
X-141000D01*
X-133320Y-35094D02*
Y-32697D01*
X-129103Y-28480D01*
X-134405Y-36180D02*
X-133320Y-35094D01*
X-136110Y-36180D02*
X-134405D01*
X-140890Y-30000D02*
X-137000Y-33890D01*
X-145000Y-35290D02*
Y-33890D01*
X-137000Y-35290D02*
X-136110Y-36180D01*
X-137000Y-35290D02*
Y-33890D01*
X-145000D02*
X-141110Y-30000D01*
X-145890Y-36180D02*
X-145000Y-35290D01*
X-148854Y-36180D02*
X-145890D01*
X-165000Y-37750D02*
X-159840D01*
X-153004Y-40479D02*
Y-40331D01*
X-148854Y-36180D01*
X-155006Y-42480D02*
X-153004Y-40479D01*
X-156710Y-42480D02*
X-155006D01*
X-159840Y-37750D02*
X-157600Y-39990D01*
Y-41590D02*
X-156710Y-42480D01*
X-157600Y-41590D02*
Y-39990D01*
X-175885Y15090D02*
X-174994Y15980D01*
X-173290D01*
X-175885Y-41590D02*
X-174994Y-42480D01*
X-172400Y13490D02*
X-170160Y11250D01*
X-165000D01*
X-172400Y-39990D02*
X-170160Y-37750D01*
X-172400Y21510D02*
X-170160Y23750D01*
X-165000D01*
X-173290Y15980D02*
X-172400Y15090D01*
X-178925Y16349D02*
X-176254Y19020D01*
X-178925Y899D02*
Y16349D01*
X-173290Y19020D02*
X-172400Y19910D01*
Y-41590D02*
Y-39990D01*
X-178925Y899D02*
X-176720Y-1306D01*
Y-25194D02*
Y-1306D01*
X-178925Y-42849D02*
X-176254Y-45520D01*
X-170160Y-37750D02*
X-165000D01*
X-173290Y-42480D02*
X-172400Y-41590D01*
X-176254Y-45520D02*
X-173290D01*
X-176254Y19020D02*
X-173290D01*
X-172400Y13490D02*
Y15090D01*
X-173290Y-45520D02*
X-172400Y-46410D01*
X-175885Y-41590D02*
Y-28658D01*
X-172400Y-48010D02*
Y-46410D01*
X-174994Y-42480D02*
X-173290D01*
X-172400Y-48010D02*
X-170160Y-50250D01*
X-178925Y-42849D02*
Y-27399D01*
X-170160Y-50250D02*
X-165000D01*
X-178925Y-27399D02*
X-176720Y-25194D01*
X-172400Y19910D02*
Y21510D01*
X-54726Y-37750D02*
Y-11726D01*
X-60451Y-43476D02*
X-54726Y-37750D01*
X-60451Y-46519D02*
Y-43476D01*
X-62983Y-49050D02*
X-60451Y-46519D01*
X-67000Y-49050D02*
X-62983D01*
X-48500Y-5500D02*
X-18500D01*
X-54726Y-11726D02*
X-48500Y-5500D01*
X-51050Y-500D02*
X-18500D01*
X-61500Y-10950D02*
X-51050Y-500D01*
X-67000Y-10950D02*
X-61500D01*
X-28804Y7000D02*
X-26304Y4500D01*
X-18500D01*
X-38000Y7000D02*
X-28804D01*
X-38000D02*
Y25000D01*
X3097Y-68785D02*
Y-51228D01*
X2293Y-69589D02*
X3097Y-68785D01*
Y-51228D02*
Y-50978D01*
X12220Y-41854D01*
X18950D01*
X24500Y-36304D01*
Y-28500D01*
D44*
X-136800Y66000D02*
D03*
X-111400D02*
D03*
X-86000D02*
D03*
D45*
X-60600D02*
D03*
D46*
X190000Y43000D02*
D03*
Y-43500D02*
D03*
D47*
X148000Y43000D02*
D03*
X148000Y-43500D02*
D03*
D48*
X153202Y28652D02*
D03*
Y-29148D02*
D03*
D49*
X-67000Y-36350D02*
D03*
X106000Y-3000D02*
D03*
X137500Y71500D02*
D03*
X96750Y39750D02*
D03*
X97000Y48750D02*
D03*
X126750Y71500D02*
D03*
X-43750Y-76750D02*
D03*
X88000Y-77000D02*
D03*
X71500Y-76750D02*
D03*
X131750Y3510D02*
D03*
X154250Y-4010D02*
D03*
Y3510D02*
D03*
X131750Y-4010D02*
D03*
X10000Y77000D02*
D03*
X87500Y-62000D02*
D03*
X117750Y-68500D02*
D03*
X158000Y-68750D02*
D03*
X180000Y-10000D02*
D03*
X101500Y-62250D02*
D03*
X-103000Y-8000D02*
D03*
X64000Y-44000D02*
D03*
X-31000Y71000D02*
D03*
X-19000Y54000D02*
D03*
X-120000Y-68000D02*
D03*
X-43000Y-14000D02*
D03*
X-69000Y1000D02*
D03*
X-99000Y-42000D02*
D03*
X-93000Y-28000D02*
D03*
Y-17000D02*
D03*
X-193000Y-51000D02*
D03*
Y-34000D02*
D03*
Y19000D02*
D03*
Y33000D02*
D03*
Y46000D02*
D03*
X9000Y-11000D02*
D03*
X-47000Y-62000D02*
D03*
X38000Y11000D02*
D03*
X-86000Y44000D02*
D03*
X-22000Y-59000D02*
D03*
X37000Y25000D02*
D03*
X20000Y-11000D02*
D03*
X-102000Y44000D02*
D03*
X22000Y25000D02*
D03*
X71750Y-62250D02*
D03*
X-147000Y-68000D02*
D03*
X-60000Y-62000D02*
D03*
X-133000Y-68000D02*
D03*
X1000Y7000D02*
D03*
X-34000Y-62000D02*
D03*
X-75000Y-70000D02*
D03*
X-71000Y44000D02*
D03*
M02*
