G04*
G04 #@! TF.GenerationSoftware,Altium Limited,Altium Designer,21.8.1 (53)*
G04*
G04 Layer_Color=65535*
%FSLAX44Y44*%
%MOMM*%
G71*
G04*
G04 #@! TF.SameCoordinates,173B3D81-F0AF-4075-A482-619B5BD7BC7F*
G04*
G04*
G04 #@! TF.FilePolarity,Positive*
G04*
G01*
G75*
%ADD10C,0.2000*%
%ADD11C,0.3000*%
%ADD12C,0.4000*%
%ADD13C,0.2500*%
%ADD14C,0.1270*%
%ADD15C,0.2540*%
D10*
X-177000Y11250D02*
G03*
X-177000Y11250I-1000J0D01*
G01*
Y-50250D02*
G03*
X-177000Y-50250I-1000J0D01*
G01*
X34100Y-71050D02*
G03*
X38100Y-75050I4000J0D01*
G01*
X45900D02*
G03*
X49900Y-71050I0J4000D01*
G01*
X49900Y-48350D02*
G03*
X45900Y-44350I-4000J-0D01*
G01*
X38100Y-44350D02*
G03*
X34100Y-48350I0J-4000D01*
G01*
X21343Y-77489D02*
G03*
X25343Y-73489I-0J4000D01*
G01*
Y-65689D02*
G03*
X21343Y-61689I-4000J0D01*
G01*
X-1357Y-61689D02*
G03*
X-5357Y-65689I0J-4000D01*
G01*
X-5357Y-73489D02*
G03*
X-1357Y-77489I4000J0D01*
G01*
X-350Y63100D02*
G03*
X3650Y67100I-0J4000D01*
G01*
Y74900D02*
G03*
X-350Y78900I-4000J0D01*
G01*
X-23050Y78900D02*
G03*
X-27050Y74900I0J-4000D01*
G01*
X-27050Y67100D02*
G03*
X-23050Y63100I4000J0D01*
G01*
X-105050Y13900D02*
G03*
X-109050Y9900I0J-4000D01*
G01*
Y2100D02*
G03*
X-105050Y-1900I4000J-0D01*
G01*
X-82350Y-1900D02*
G03*
X-78350Y2100I-0J4000D01*
G01*
X-78350Y9900D02*
G03*
X-82350Y13900I-4000J0D01*
G01*
X69100Y-51050D02*
G03*
X73100Y-55050I4000J0D01*
G01*
X80900D02*
G03*
X84900Y-51050I0J4000D01*
G01*
X84900Y-28350D02*
G03*
X80900Y-24350I-4000J-0D01*
G01*
X73100Y-24350D02*
G03*
X69100Y-28350I0J-4000D01*
G01*
X83050Y45100D02*
G03*
X87050Y49100I-0J4000D01*
G01*
Y56900D02*
G03*
X83050Y60900I-4000J0D01*
G01*
X60350Y60900D02*
G03*
X56350Y56900I0J-4000D01*
G01*
X56350Y49100D02*
G03*
X60350Y45100I4000J0D01*
G01*
X-41350Y-21100D02*
G03*
X-45350Y-25100I0J-4000D01*
G01*
Y-32900D02*
G03*
X-41350Y-36900I4000J-0D01*
G01*
X-18650Y-36900D02*
G03*
X-14650Y-32900I-0J4000D01*
G01*
X-14650Y-25100D02*
G03*
X-18650Y-21100I-4000J0D01*
G01*
X92350Y-40100D02*
G03*
X88350Y-44100I0J-4000D01*
G01*
Y-51900D02*
G03*
X92350Y-55900I4000J-0D01*
G01*
X115050Y-55900D02*
G03*
X119050Y-51900I-0J4000D01*
G01*
X119050Y-44100D02*
G03*
X115050Y-40100I-4000J0D01*
G01*
X92350Y-22100D02*
G03*
X88350Y-26100I0J-4000D01*
G01*
Y-33900D02*
G03*
X92350Y-37900I4000J-0D01*
G01*
X115050Y-37900D02*
G03*
X119050Y-33900I-0J4000D01*
G01*
X119050Y-26100D02*
G03*
X115050Y-22100I-4000J0D01*
G01*
X103050Y15350D02*
G03*
X107050Y19350I-0J4000D01*
G01*
Y27150D02*
G03*
X103050Y31150I-4000J0D01*
G01*
X80350Y31150D02*
G03*
X76350Y27150I0J-4000D01*
G01*
X76350Y19350D02*
G03*
X80350Y15350I4000J0D01*
G01*
X-104050Y-60100D02*
G03*
X-108050Y-64100I0J-4000D01*
G01*
Y-71900D02*
G03*
X-104050Y-75900I4000J-0D01*
G01*
X-81350Y-75900D02*
G03*
X-77350Y-71900I-0J4000D01*
G01*
X-77350Y-64100D02*
G03*
X-81350Y-60100I-4000J0D01*
G01*
X-41350Y-39100D02*
G03*
X-45350Y-43100I0J-4000D01*
G01*
Y-50900D02*
G03*
X-41350Y-54900I4000J-0D01*
G01*
X-18650Y-54900D02*
G03*
X-14650Y-50900I-0J4000D01*
G01*
X-14650Y-43100D02*
G03*
X-18650Y-39100I-4000J0D01*
G01*
X135150Y-20250D02*
Y-8900D01*
X119350Y-39600D02*
X135150D01*
X119350Y-8900D02*
X135150D01*
Y-39600D02*
Y-28250D01*
X119350Y-20250D02*
Y-8900D01*
Y-39600D02*
Y-28250D01*
X135150Y36500D02*
Y47850D01*
X119350Y17150D02*
X135150D01*
X119350Y47850D02*
X135150D01*
Y17150D02*
Y28500D01*
X119350Y36500D02*
Y47850D01*
Y17150D02*
Y28500D01*
X142000Y-76400D02*
X153350D01*
X122650D02*
Y-60600D01*
X153350Y-76400D02*
Y-60600D01*
X122650Y-76400D02*
X134000D01*
X142000Y-60600D02*
X153350D01*
X122650D02*
X134000D01*
X111250Y54500D02*
Y61500D01*
X91750Y54500D02*
Y61500D01*
X130750Y54500D02*
Y61500D01*
X111250Y54500D02*
Y61500D01*
X-5500Y-15500D02*
X49500D01*
X-5500Y39500D02*
X49500D01*
X-5500Y-15500D02*
Y39500D01*
X49500Y-15500D02*
Y39500D01*
X-47900Y53300D02*
Y78700D01*
X-149500Y53300D02*
X-47900D01*
X-149500Y78700D02*
X-47900D01*
X-149500Y53300D02*
Y78700D01*
X49900Y-71050D02*
Y-63700D01*
X49900Y-55700D02*
Y-48350D01*
X34100Y-55700D02*
Y-48350D01*
X38100Y-75050D02*
X45900D01*
X38100Y-44350D02*
X45900D01*
X34100Y-71050D02*
Y-63700D01*
X13993Y-61689D02*
X21343D01*
X-1357Y-61689D02*
X5993D01*
X-1357Y-77489D02*
X5993D01*
X25343Y-73489D02*
Y-65689D01*
X-5357Y-73489D02*
Y-65689D01*
X13993Y-77489D02*
X21343D01*
X-7700Y78900D02*
X-350D01*
X-23050Y78900D02*
X-15700D01*
X-23050Y63100D02*
X-15700D01*
X3650Y67100D02*
Y74900D01*
X-27050Y67100D02*
Y74900D01*
X-7700Y63100D02*
X-350D01*
X-105050Y-1900D02*
X-97700D01*
X-89700Y-1900D02*
X-82350D01*
X-89700Y13900D02*
X-82350D01*
X-109050Y2100D02*
Y9900D01*
X-78350Y2100D02*
Y9900D01*
X-105050Y13900D02*
X-97700D01*
X-61050Y32900D02*
X-49700D01*
X-41700D02*
X-30350D01*
X-61050Y17100D02*
X-49700D01*
X-30350D02*
Y32900D01*
X-61050Y17100D02*
Y32900D01*
X-41700Y17100D02*
X-30350D01*
X-61050Y14900D02*
X-49700D01*
X-41700D02*
X-30350D01*
X-61050Y-900D02*
X-49700D01*
X-30350D02*
Y14900D01*
X-61050Y-900D02*
Y14900D01*
X-41700Y-900D02*
X-30350D01*
X84900Y-51050D02*
Y-43700D01*
X84900Y-35700D02*
Y-28350D01*
X69100Y-35700D02*
Y-28350D01*
X73100Y-55050D02*
X80900D01*
X73100Y-24350D02*
X80900D01*
X69100Y-51050D02*
Y-43700D01*
X75700Y60900D02*
X83050D01*
X60350Y60900D02*
X67700D01*
X60350Y45100D02*
X67700D01*
X87050Y49100D02*
Y56900D01*
X56350Y49100D02*
Y56900D01*
X75700Y45100D02*
X83050D01*
X-41350Y-36900D02*
X-34000D01*
X-26000Y-36900D02*
X-18650D01*
X-26000Y-21100D02*
X-18650D01*
X-45350Y-32900D02*
Y-25100D01*
X-14650Y-32900D02*
Y-25100D01*
X-41350Y-21100D02*
X-34000D01*
X92350Y-55900D02*
X99700D01*
X107700Y-55900D02*
X115050D01*
X107700Y-40100D02*
X115050D01*
X88350Y-51900D02*
Y-44100D01*
X119050Y-51900D02*
Y-44100D01*
X92350Y-40100D02*
X99700D01*
X92350Y-37900D02*
X99700D01*
X107700Y-37900D02*
X115050D01*
X107700Y-22100D02*
X115050D01*
X88350Y-33900D02*
Y-26100D01*
X119050Y-33900D02*
Y-26100D01*
X92350Y-22100D02*
X99700D01*
X95700Y31150D02*
X103050D01*
X80350Y31150D02*
X87700D01*
X80350Y15350D02*
X87700D01*
X107050Y19350D02*
Y27150D01*
X76350Y19350D02*
Y27150D01*
X95700Y15350D02*
X103050D01*
X90500Y-18500D02*
X95500D01*
X90500Y12500D02*
X95500D01*
Y-18500D02*
Y12500D01*
X90500Y-18500D02*
Y12500D01*
X-148900Y-53050D02*
Y-41700D01*
Y-33700D02*
Y-22350D01*
X-133100Y-53050D02*
Y-41700D01*
X-148900Y-22350D02*
X-133100D01*
X-148900Y-53050D02*
X-133100D01*
Y-33700D02*
Y-22350D01*
X-104050Y-75900D02*
X-96700D01*
X-88700Y-75900D02*
X-81350D01*
X-88700Y-60100D02*
X-81350D01*
X-108050Y-71900D02*
Y-64100D01*
X-77350Y-71900D02*
Y-64100D01*
X-104050Y-60100D02*
X-96700D01*
X-41350Y-54900D02*
X-34000D01*
X-26000Y-54900D02*
X-18650D01*
X-26000Y-39100D02*
X-18650D01*
X-45350Y-50900D02*
Y-43100D01*
X-14650Y-50900D02*
Y-43100D01*
X-41350Y-39100D02*
X-34000D01*
X14797Y-59128D02*
X26147D01*
X-4553D02*
X6797D01*
X14797Y-43328D02*
X26147D01*
X-4553Y-59128D02*
Y-43328D01*
X26147Y-59128D02*
Y-43328D01*
X-4553D02*
X6797D01*
D11*
X-11000Y-30750D02*
G03*
X-11000Y-30750I-1500J0D01*
G01*
X-62250Y-57500D02*
G03*
X-62250Y-57500I-1500J0D01*
G01*
D12*
X3750Y-8250D02*
G03*
X3750Y-8250I-2000J0D01*
G01*
X-84000Y-47000D02*
G03*
X-84000Y-47000I-2000J0D01*
G01*
D13*
X106250Y-21250D02*
G03*
X106250Y-21250I-1250J0D01*
G01*
D14*
X-176750Y71250D02*
X-167500D01*
Y53600D02*
Y71250D01*
X-176750Y-11250D02*
X-167500D01*
Y6400D01*
X-204000Y-500D02*
Y60500D01*
X-176750Y-15250D02*
X-167500D01*
Y-32900D02*
Y-15250D01*
X-176750Y-72750D02*
X-167500D01*
Y-55100D01*
X-204000Y-62000D02*
Y-26000D01*
D15*
X216000Y-45250D02*
Y44750D01*
X199811Y-45250D02*
X216000D01*
X160311D02*
X180188D01*
X199780Y45470D02*
X214510D01*
X160280D02*
X180219D01*
X142500Y-39201D02*
Y-37811D01*
Y37311D02*
Y38701D01*
X-79000Y-54000D02*
Y-6000D01*
X-107000Y-54000D02*
Y-6000D01*
Y-54000D02*
X-79000D01*
X-107000Y-6000D02*
X-79000D01*
X145858Y69367D02*
Y56671D01*
X148397Y54132D01*
X153476D01*
X156015Y56671D01*
Y69367D01*
X171250Y66828D02*
X168711Y69367D01*
X163633D01*
X161093Y66828D01*
Y64288D01*
X163633Y61749D01*
X168711D01*
X171250Y59210D01*
Y56671D01*
X168711Y54132D01*
X163633D01*
X161093Y56671D01*
X176328Y69367D02*
Y54132D01*
X183946D01*
X186485Y56671D01*
Y59210D01*
X183946Y61749D01*
X176328D01*
X183946D01*
X186485Y64288D01*
Y66828D01*
X183946Y69367D01*
X176328D01*
X191563Y54132D02*
X196642D01*
X194103D01*
Y69367D01*
X191563Y66828D01*
X-133235Y45078D02*
X-135774Y47618D01*
X-140853D01*
X-143392Y45078D01*
Y42539D01*
X-140853Y40000D01*
X-135774D01*
X-133235Y37461D01*
Y34922D01*
X-135774Y32383D01*
X-140853D01*
X-143392Y34922D01*
X-128157Y47618D02*
Y32383D01*
X-123078Y37461D01*
X-118000Y32383D01*
Y47618D01*
X-112922D02*
Y32383D01*
X-105304D01*
X-102765Y34922D01*
Y45078D01*
X-105304Y47618D01*
X-112922D01*
X-97687Y32383D02*
X-92608D01*
X-95147D01*
Y47618D01*
X-97687Y45078D01*
M02*
