G04*
G04 #@! TF.GenerationSoftware,Altium Limited,Altium Designer,21.8.1 (53)*
G04*
G04 Layer_Color=8421504*
%FSLAX44Y44*%
%MOMM*%
G71*
G04*
G04 #@! TF.SameCoordinates,1E85E8FB-5C63-406C-B3B3-A4210A6241D9*
G04*
G04*
G04 #@! TF.FilePolarity,Positive*
G04*
G01*
G75*
%ADD16R,2.5000X1.0000*%
%ADD17R,1.7000X0.6000*%
%ADD18O,0.2800X1.8000*%
%ADD19O,1.8000X0.2800*%
%ADD20R,0.9800X0.9300*%
%ADD21R,0.9300X0.9800*%
%ADD22R,1.1000X0.6500*%
%ADD23R,1.1000X0.3500*%
%ADD24O,1.8000X0.7000*%
%ADD25R,1.2000X0.6500*%
D16*
X-191500Y67250D02*
D03*
Y-7250D02*
D03*
Y-19250D02*
D03*
Y-68750D02*
D03*
D17*
X-165000Y36250D02*
D03*
Y48750D02*
D03*
Y23750D02*
D03*
Y11250D02*
D03*
Y-37750D02*
D03*
Y-50250D02*
D03*
D18*
X-5500Y-28500D02*
D03*
X-500D02*
D03*
X4500D02*
D03*
X9500D02*
D03*
X14500D02*
D03*
X19500D02*
D03*
X24500D02*
D03*
X29500D02*
D03*
X34500D02*
D03*
X39500D02*
D03*
X44500D02*
D03*
X49500D02*
D03*
Y52500D02*
D03*
X44500D02*
D03*
X39500D02*
D03*
X34500D02*
D03*
X29500D02*
D03*
X24500D02*
D03*
X19500D02*
D03*
X14500D02*
D03*
X9500D02*
D03*
X4500D02*
D03*
X-500D02*
D03*
X-5500D02*
D03*
D19*
X62500Y-15500D02*
D03*
Y-10500D02*
D03*
Y-5500D02*
D03*
Y-500D02*
D03*
Y4500D02*
D03*
Y9500D02*
D03*
Y14500D02*
D03*
Y19500D02*
D03*
Y24500D02*
D03*
Y29500D02*
D03*
Y34500D02*
D03*
Y39500D02*
D03*
X-18500D02*
D03*
Y34500D02*
D03*
Y29500D02*
D03*
Y24500D02*
D03*
Y19500D02*
D03*
Y14500D02*
D03*
Y9500D02*
D03*
Y4500D02*
D03*
Y-500D02*
D03*
Y-5500D02*
D03*
Y-10500D02*
D03*
Y-15500D02*
D03*
D20*
X42000Y-52000D02*
D03*
Y-67400D02*
D03*
X77000Y-32000D02*
D03*
Y-47400D02*
D03*
X-141000Y-45400D02*
D03*
Y-30000D02*
D03*
D21*
X2293Y-69589D02*
D03*
X17693D02*
D03*
X-19400Y71000D02*
D03*
X-4000D02*
D03*
X-86000Y6000D02*
D03*
X-101400D02*
D03*
X-53400Y25000D02*
D03*
X-38000D02*
D03*
X-53400Y7000D02*
D03*
X-38000D02*
D03*
X64000Y53000D02*
D03*
X79400D02*
D03*
X-22300Y-29000D02*
D03*
X-37700D02*
D03*
X111400Y-48000D02*
D03*
X96000D02*
D03*
X111400Y-30000D02*
D03*
X96000D02*
D03*
X84000Y23250D02*
D03*
X99400D02*
D03*
X-85000Y-68000D02*
D03*
X-100400D02*
D03*
X-22300Y-47000D02*
D03*
X-37700D02*
D03*
X18497Y-51228D02*
D03*
X3097D02*
D03*
D22*
X132500Y31750D02*
D03*
Y23750D02*
D03*
Y-24250D02*
D03*
Y-32250D02*
D03*
D23*
Y17250D02*
D03*
Y12250D02*
D03*
Y7250D02*
D03*
Y2250D02*
D03*
Y-2750D02*
D03*
Y-7750D02*
D03*
Y-12750D02*
D03*
Y-17750D02*
D03*
D24*
X-67000Y-49050D02*
D03*
Y-36350D02*
D03*
Y-23650D02*
D03*
Y-10950D02*
D03*
X-119000Y-49050D02*
D03*
Y-36350D02*
D03*
Y-23650D02*
D03*
Y-10950D02*
D03*
D25*
X106000Y-12500D02*
D03*
Y-3000D02*
D03*
Y6500D02*
D03*
X80000D02*
D03*
Y-12500D02*
D03*
M02*
