M48
;Layer_Color=9474304
;FILE_FORMAT=4:4
METRIC,LZ
;TYPE=PLATED
T1F00S00C0.3000
T3F00S00C0.9000
;TYPE=NON_PLATED
T4F00S00C0.7000
%
T01
X00088094Y-00066094
X00101Y-00066
X001Y00048
X00111
X00155Y00009
X00038Y00011
X00037Y00025
X00022
X0002Y-00011
X00009
X00001Y00007
X-00043Y-00014
X-00069Y00001
X-00093Y-00017
Y-00028
X-00099Y-00042
X-00103Y-00008
X-00102Y00044
X-00086
X-00071
X-0006Y-00062
X-00047
X-00034
X-00022Y-00059
X-00075Y-0007
X-0012Y-00068
X-00133
X-00147
X-00193Y-00051
Y-00034
Y00019
Y00033
Y00046
X00064Y-00044
X00072Y-0006421
X0001Y00077
X-00031Y00071
X-00019Y00054
X001Y00061
X00132Y00064
Y00076
T03
X-001368Y00066
X-001114
X-00086
X-000606
T04
X00143202Y-00029148
Y00028652
M30
