G04*
G04 #@! TF.GenerationSoftware,Altium Limited,Altium Designer,21.8.1 (53)*
G04*
G04 Layer_Physical_Order=2*
G04 Layer_Color=16711680*
%FSLAX44Y44*%
%MOMM*%
G71*
G04*
G04 #@! TF.SameCoordinates,C2C04723-665B-4EC8-97F3-F64F8151DB4A*
G04*
G04*
G04 #@! TF.FilePolarity,Positive*
G04*
G01*
G75*
%ADD13C,0.2500*%
%ADD15C,0.2540*%
%ADD44C,1.5000*%
%ADD45R,1.5000X1.5000*%
%ADD46O,1.5000X1.2000*%
%ADD47O,2.0000X1.2000*%
%ADD48C,0.7000*%
%ADD49C,0.6000*%
G36*
X200000Y82961D02*
X201769D01*
X205239Y82271D01*
X208508Y80917D01*
X211449Y78951D01*
X213951Y76449D01*
X215917Y73508D01*
X217271Y70239D01*
X217961Y66769D01*
X217961Y65000D01*
X217961Y-65000D01*
X217961Y-66769D01*
X217271Y-70239D01*
X215917Y-73508D01*
X213951Y-76449D01*
X211449Y-78951D01*
X208508Y-80917D01*
X205239Y-82271D01*
X201769Y-82961D01*
X200000D01*
X-190000Y-82961D01*
X-191769D01*
X-195239Y-82271D01*
X-198508Y-80917D01*
X-201449Y-78951D01*
X-203951Y-76449D01*
X-205917Y-73508D01*
X-207271Y-70239D01*
X-207961Y-66769D01*
X-207961Y-65000D01*
X-207961Y65000D01*
Y66769D01*
X-207271Y70239D01*
X-205917Y73508D01*
X-203951Y76449D01*
X-201449Y78951D01*
X-198508Y80917D01*
X-195239Y82271D01*
X-191769Y82961D01*
X-190000Y82961D01*
X200000Y82961D01*
D02*
G37*
%LPC*%
G36*
X-51580Y75020D02*
X-69620D01*
Y56980D01*
X-51580D01*
Y75020D01*
D02*
G37*
G36*
X-110212D02*
X-112587D01*
X-114882Y74405D01*
X-116938Y73218D01*
X-118618Y71538D01*
X-119805Y69482D01*
X-120420Y67188D01*
Y64812D01*
X-119805Y62518D01*
X-118618Y60462D01*
X-116938Y58782D01*
X-114882Y57595D01*
X-112587Y56980D01*
X-110212D01*
X-107918Y57595D01*
X-105862Y58782D01*
X-104182Y60462D01*
X-102995Y62518D01*
X-102380Y64812D01*
Y67188D01*
X-102995Y69482D01*
X-104182Y71538D01*
X-105862Y73218D01*
X-107918Y74405D01*
X-110212Y75020D01*
D02*
G37*
G36*
X-135612D02*
X-137987D01*
X-140282Y74405D01*
X-142338Y73218D01*
X-144018Y71538D01*
X-145205Y69482D01*
X-145820Y67188D01*
Y64812D01*
X-145205Y62518D01*
X-144018Y60462D01*
X-142338Y58782D01*
X-140282Y57595D01*
X-137987Y56980D01*
X-135612D01*
X-133318Y57595D01*
X-131262Y58782D01*
X-129582Y60462D01*
X-128395Y62518D01*
X-127780Y64812D01*
Y67188D01*
X-128395Y69482D01*
X-129582Y71538D01*
X-131262Y73218D01*
X-133318Y74405D01*
X-135612Y75020D01*
D02*
G37*
G36*
X154201Y33672D02*
X152204D01*
X150358Y32908D01*
X148946Y31495D01*
X148182Y29650D01*
Y27653D01*
X148946Y25808D01*
X150358Y24396D01*
X152204Y23632D01*
X154201D01*
X156046Y24396D01*
X157458Y25808D01*
X158222Y27653D01*
Y29650D01*
X157458Y31495D01*
X156046Y32908D01*
X154201Y33672D01*
D02*
G37*
G36*
X155149Y8030D02*
X153351D01*
X151690Y7342D01*
X150418Y6070D01*
X149751Y4459D01*
X146404D01*
X146403Y4459D01*
X145323Y4244D01*
X144406Y3632D01*
X137540Y-3234D01*
X137018Y-3184D01*
X136216Y-2906D01*
X136170Y-2870D01*
X135582Y-1450D01*
X134382Y-250D01*
X135582Y949D01*
X136270Y2611D01*
Y4409D01*
X135582Y6070D01*
X134310Y7342D01*
X132649Y8030D01*
X130851D01*
X129190Y7342D01*
X127918Y6070D01*
X127230Y4409D01*
Y3624D01*
X121894Y-1713D01*
X121281Y-2629D01*
X121066Y-3710D01*
X121066Y-3710D01*
Y-10857D01*
X121066Y-10857D01*
X121281Y-11938D01*
X121894Y-12854D01*
X125566Y-16527D01*
X125566Y-16527D01*
X126483Y-17140D01*
X127563Y-17355D01*
X127564Y-17355D01*
X136107D01*
X136108Y-17355D01*
X137188Y-17140D01*
X138105Y-16527D01*
X144909Y-9723D01*
X144909Y-9723D01*
X145521Y-8807D01*
X145579Y-8515D01*
X148598Y-5496D01*
X150078Y-5749D01*
X150418Y-6571D01*
X151690Y-7842D01*
X153351Y-8530D01*
X155149D01*
X156810Y-7842D01*
X158082Y-6571D01*
X158770Y-4909D01*
Y-3111D01*
X158082Y-1450D01*
X156882Y-250D01*
X158082Y949D01*
X158770Y2611D01*
Y4409D01*
X158082Y6070D01*
X156810Y7342D01*
X155149Y8030D01*
D02*
G37*
G36*
X154201Y-24128D02*
X152204D01*
X150358Y-24893D01*
X148946Y-26305D01*
X148182Y-28150D01*
Y-30147D01*
X148946Y-31992D01*
X150358Y-33404D01*
X152204Y-34169D01*
X154201D01*
X156046Y-33404D01*
X157458Y-31992D01*
X158222Y-30147D01*
Y-28150D01*
X157458Y-26305D01*
X156046Y-24893D01*
X154201Y-24128D01*
D02*
G37*
G36*
X-30101Y75520D02*
X-31899D01*
X-33560Y74832D01*
X-34832Y73560D01*
X-35520Y71899D01*
Y70101D01*
X-34832Y68440D01*
X-33845Y67452D01*
Y52178D01*
X-91178Y-5155D01*
X-99452D01*
X-100440Y-4168D01*
X-102101Y-3480D01*
X-103899D01*
X-105560Y-4168D01*
X-106832Y-5440D01*
X-107520Y-7101D01*
Y-8899D01*
X-106832Y-10560D01*
X-105560Y-11832D01*
X-103899Y-12520D01*
X-102101D01*
X-100440Y-11832D01*
X-99452Y-10845D01*
X-90000D01*
X-88911Y-10628D01*
X-87989Y-10012D01*
X-31000Y46977D01*
X55959Y-39982D01*
X55473Y-41155D01*
X-7000D01*
X-8089Y-41372D01*
X-9011Y-41989D01*
X-21503Y-54480D01*
X-22899D01*
X-24560Y-55168D01*
X-25832Y-56440D01*
X-26520Y-58101D01*
Y-59899D01*
X-25832Y-61560D01*
X-24560Y-62832D01*
X-22899Y-63520D01*
X-21101D01*
X-19440Y-62832D01*
X-18168Y-61560D01*
X-17480Y-59899D01*
Y-58503D01*
X-5822Y-46845D01*
X60452D01*
X61440Y-47832D01*
X63101Y-48520D01*
X64899D01*
X66560Y-47832D01*
X67832Y-46560D01*
X68520Y-44899D01*
Y-43101D01*
X67832Y-41440D01*
X66560Y-40168D01*
X64899Y-39480D01*
X63503D01*
X-28155Y52178D01*
Y67452D01*
X-27168Y68440D01*
X-26480Y70101D01*
Y71899D01*
X-27168Y73560D01*
X-28440Y74832D01*
X-30101Y75520D01*
D02*
G37*
G36*
X118649Y-63980D02*
X116851D01*
X115190Y-64668D01*
X114202Y-65655D01*
X-72564D01*
X-73316Y-65805D01*
X-74101Y-65480D01*
X-75899D01*
X-77560Y-66168D01*
X-78832Y-67440D01*
X-79520Y-69101D01*
Y-70899D01*
X-78832Y-72560D01*
X-77560Y-73832D01*
X-75899Y-74520D01*
X-74101D01*
X-72440Y-73832D01*
X-71168Y-72560D01*
X-70665Y-71345D01*
X114202D01*
X115190Y-72332D01*
X116851Y-73020D01*
X118649D01*
X120310Y-72332D01*
X121582Y-71060D01*
X122270Y-69399D01*
Y-67601D01*
X121582Y-65940D01*
X120310Y-64668D01*
X118649Y-63980D01*
D02*
G37*
G36*
X180899Y-5480D02*
X179101D01*
X177440Y-6168D01*
X176168Y-7440D01*
X175480Y-9101D01*
Y-10899D01*
X176168Y-12560D01*
X176865Y-13257D01*
Y-45862D01*
X158497Y-64230D01*
X157101D01*
X155440Y-64918D01*
X154168Y-66190D01*
X153480Y-67851D01*
Y-69649D01*
X154168Y-71310D01*
X155440Y-72582D01*
X157101Y-73270D01*
X158899D01*
X160560Y-72582D01*
X161832Y-71310D01*
X162520Y-69649D01*
Y-68253D01*
X181721Y-49052D01*
X182338Y-48129D01*
X182554Y-47040D01*
Y-13834D01*
X182560Y-13832D01*
X183832Y-12560D01*
X184520Y-10899D01*
Y-9101D01*
X183832Y-7440D01*
X182560Y-6168D01*
X180899Y-5480D01*
D02*
G37*
%LPD*%
D13*
X147965Y-2135D02*
X151428D01*
X131110Y3510D02*
X131750D01*
X151428Y-2135D02*
X153303Y-4010D01*
X154250D01*
X142912Y-7189D02*
X147965Y-2135D01*
X142912Y-7726D02*
Y-7189D01*
X136108Y-14530D02*
X142912Y-7726D01*
X127563Y-14530D02*
X136108D01*
X123891Y-3710D02*
X131110Y3510D01*
X123891Y-10857D02*
X127563Y-14530D01*
X123891Y-10857D02*
Y-3710D01*
X153303Y3510D02*
X154250D01*
X151428Y1635D02*
X153303Y3510D01*
X146403Y1635D02*
X151428D01*
X139142Y-5627D02*
X146403Y1635D01*
X139142Y-6165D02*
Y-5627D01*
X134546Y-10760D02*
X139142Y-6165D01*
X130875Y-4010D02*
X131750D01*
X129125Y-10760D02*
X134546D01*
X127661Y-9296D02*
Y-7225D01*
Y-9296D02*
X129125Y-10760D01*
X127661Y-7225D02*
X130875Y-4010D01*
D15*
X-74064Y-70000D02*
X-72564Y-68500D01*
X117750D01*
X-75000Y-70000D02*
X-74064D01*
X179710Y-47040D02*
Y-10290D01*
X158000Y-68750D02*
X179710Y-47040D01*
Y-10290D02*
X180000Y-10000D01*
X-22000Y-59000D02*
X-7000Y-44000D01*
X64000D01*
X-90000Y-8000D02*
X-31000Y51000D01*
X-103000Y-8000D02*
X-90000D01*
X-31000Y51000D02*
Y71000D01*
Y51000D02*
X64000Y-44000D01*
D44*
X-136800Y66000D02*
D03*
X-111400D02*
D03*
X-86000D02*
D03*
D45*
X-60600D02*
D03*
D46*
X190000Y43000D02*
D03*
Y-43500D02*
D03*
D47*
X148000Y43000D02*
D03*
X148000Y-43500D02*
D03*
D48*
X153202Y28652D02*
D03*
Y-29148D02*
D03*
D49*
X-67000Y-36350D02*
D03*
X106000Y-3000D02*
D03*
X137500Y71500D02*
D03*
X96750Y39750D02*
D03*
X97000Y48750D02*
D03*
X126750Y71500D02*
D03*
X-43750Y-76750D02*
D03*
X88000Y-77000D02*
D03*
X71500Y-76750D02*
D03*
X131750Y3510D02*
D03*
X154250Y-4010D02*
D03*
Y3510D02*
D03*
X131750Y-4010D02*
D03*
X10000Y77000D02*
D03*
X87500Y-62000D02*
D03*
X117750Y-68500D02*
D03*
X158000Y-68750D02*
D03*
X180000Y-10000D02*
D03*
X101500Y-62250D02*
D03*
X-103000Y-8000D02*
D03*
X64000Y-44000D02*
D03*
X-31000Y71000D02*
D03*
X-19000Y54000D02*
D03*
X-120000Y-68000D02*
D03*
X-43000Y-14000D02*
D03*
X-69000Y1000D02*
D03*
X-99000Y-42000D02*
D03*
X-93000Y-28000D02*
D03*
Y-17000D02*
D03*
X-193000Y-51000D02*
D03*
Y-34000D02*
D03*
Y19000D02*
D03*
Y33000D02*
D03*
Y46000D02*
D03*
X9000Y-11000D02*
D03*
X-47000Y-62000D02*
D03*
X38000Y11000D02*
D03*
X-86000Y44000D02*
D03*
X-22000Y-59000D02*
D03*
X37000Y25000D02*
D03*
X20000Y-11000D02*
D03*
X-102000Y44000D02*
D03*
X22000Y25000D02*
D03*
X71750Y-62250D02*
D03*
X-147000Y-68000D02*
D03*
X-60000Y-62000D02*
D03*
X-133000Y-68000D02*
D03*
X1000Y7000D02*
D03*
X-34000Y-62000D02*
D03*
X-75000Y-70000D02*
D03*
X-71000Y44000D02*
D03*
M02*
