G04*
G04 #@! TF.GenerationSoftware,Altium Limited,Altium Designer,21.8.1 (53)*
G04*
G04 Layer_Color=8388736*
%FSLAX44Y44*%
%MOMM*%
G71*
G04*
G04 #@! TF.SameCoordinates,C2C04723-665B-4EC8-97F3-F64F8151DB4A*
G04*
G04*
G04 #@! TF.FilePolarity,Negative*
G04*
G01*
G75*
%ADD27R,1.1832X1.1332*%
%ADD28R,1.1332X1.1832*%
%ADD29R,0.7016X0.7516*%
%ADD30R,2.7032X1.2032*%
%ADD31R,1.9032X0.8032*%
%ADD32O,0.3816X1.9016*%
%ADD33O,1.9016X0.3816*%
%ADD34R,1.3032X0.8532*%
%ADD35R,1.3032X0.5532*%
%ADD36O,2.0032X0.9032*%
%ADD37R,1.4032X0.8532*%
%ADD38C,1.7032*%
%ADD39R,1.7032X1.7032*%
%ADD40O,1.7032X1.4032*%
%ADD41O,2.2032X1.4032*%
%ADD42C,0.9032*%
D27*
X127250Y-16550D02*
D03*
Y-31950D02*
D03*
Y40200D02*
D03*
Y24800D02*
D03*
X42000Y-52000D02*
D03*
Y-67400D02*
D03*
X77000Y-32000D02*
D03*
Y-47400D02*
D03*
X-141000Y-45400D02*
D03*
Y-30000D02*
D03*
D28*
X145700Y-68500D02*
D03*
X130300D02*
D03*
X2293Y-69589D02*
D03*
X17693D02*
D03*
X-19400Y71000D02*
D03*
X-4000D02*
D03*
X-86000Y6000D02*
D03*
X-101400D02*
D03*
X-53400Y25000D02*
D03*
X-38000D02*
D03*
X-53400Y7000D02*
D03*
X-38000D02*
D03*
X64000Y53000D02*
D03*
X79400D02*
D03*
X-22300Y-29000D02*
D03*
X-37700D02*
D03*
X111400Y-48000D02*
D03*
X96000D02*
D03*
X111400Y-30000D02*
D03*
X96000D02*
D03*
X84000Y23250D02*
D03*
X99400D02*
D03*
X-85000Y-68000D02*
D03*
X-100400D02*
D03*
X-22300Y-47000D02*
D03*
X-37700D02*
D03*
X18497Y-51228D02*
D03*
X3097D02*
D03*
D29*
X97250Y58000D02*
D03*
X105750D02*
D03*
X116750D02*
D03*
X125250D02*
D03*
D30*
X-191500Y67250D02*
D03*
Y-7250D02*
D03*
Y-19250D02*
D03*
Y-68750D02*
D03*
D31*
X-165000Y36250D02*
D03*
Y48750D02*
D03*
Y23750D02*
D03*
Y11250D02*
D03*
Y-37750D02*
D03*
Y-50250D02*
D03*
D32*
X-5500Y-28500D02*
D03*
X-500D02*
D03*
X4500D02*
D03*
X9500D02*
D03*
X14500D02*
D03*
X19500D02*
D03*
X24500D02*
D03*
X29500D02*
D03*
X34500D02*
D03*
X39500D02*
D03*
X44500D02*
D03*
X49500D02*
D03*
Y52500D02*
D03*
X44500D02*
D03*
X39500D02*
D03*
X34500D02*
D03*
X29500D02*
D03*
X24500D02*
D03*
X19500D02*
D03*
X14500D02*
D03*
X9500D02*
D03*
X4500D02*
D03*
X-500D02*
D03*
X-5500D02*
D03*
D33*
X62500Y-15500D02*
D03*
Y-10500D02*
D03*
Y-5500D02*
D03*
Y-500D02*
D03*
Y4500D02*
D03*
Y9500D02*
D03*
Y14500D02*
D03*
Y19500D02*
D03*
Y24500D02*
D03*
Y29500D02*
D03*
Y34500D02*
D03*
Y39500D02*
D03*
X-18500D02*
D03*
Y34500D02*
D03*
Y29500D02*
D03*
Y24500D02*
D03*
Y19500D02*
D03*
Y14500D02*
D03*
Y9500D02*
D03*
Y4500D02*
D03*
Y-500D02*
D03*
Y-5500D02*
D03*
Y-10500D02*
D03*
Y-15500D02*
D03*
D34*
X142500Y31750D02*
D03*
Y23750D02*
D03*
Y-24250D02*
D03*
Y-32250D02*
D03*
D35*
Y17250D02*
D03*
Y12250D02*
D03*
Y7250D02*
D03*
Y2250D02*
D03*
Y-2750D02*
D03*
Y-7750D02*
D03*
Y-12750D02*
D03*
Y-17750D02*
D03*
D36*
X-67000Y-49050D02*
D03*
Y-36350D02*
D03*
Y-23650D02*
D03*
Y-10950D02*
D03*
X-119000Y-49050D02*
D03*
Y-36350D02*
D03*
Y-23650D02*
D03*
Y-10950D02*
D03*
D37*
X106000Y-12500D02*
D03*
Y-3000D02*
D03*
Y6500D02*
D03*
X80000D02*
D03*
Y-12500D02*
D03*
D38*
X-136800Y66000D02*
D03*
X-111400D02*
D03*
X-86000D02*
D03*
D39*
X-60600D02*
D03*
D40*
X190000Y43000D02*
D03*
Y-43500D02*
D03*
D41*
X148000Y43000D02*
D03*
X148000Y-43500D02*
D03*
D42*
X153202Y28652D02*
D03*
Y-29148D02*
D03*
M02*
