M48
;Layer_Color=9474304
;FILE_FORMAT=4:4
METRIC,LZ
;TYPE=PLATED
T1F00S00C0.3000
T3F00S00C0.9000
;TYPE=NON_PLATED
T4F00S00C0.7000
%
T01
X00088Y-00077
X000875Y-00062
X001015Y-0006225
X0011775Y-000685
X00158Y-0006875
X0015425Y-0000401
Y0000351
X0013175
Y-0000401
X00106Y-00003
X0009675Y0003975
X0018Y-0001
X00064Y-00044
X0007175Y-0006225
X000715Y-0007675
X-00022Y-00059
X-00034Y-00062
X-00047
X-0006
X-00075Y-0007
X-0004375Y-0007675
X-00043Y-00014
X-00069Y00001
X-00067Y-0003635
X-00093Y-00028
Y-00017
X-00103Y-00008
X-00099Y-00042
X-0012Y-00068
X-00133
X-00147
X-00193Y-00051
Y-00034
Y00019
Y00033
Y00046
X-00102Y00044
X-00086
X-00071
X00001Y00007
X00009Y-00011
X0002
X00022Y00025
X00037
X00038Y00011
X0001Y00077
X-00031Y00071
X-00019Y00054
X00097Y0004875
X0012675Y000715
X001375
T03
X-001368Y00066
X-001114
X-00086
X-000606
T04
X00153202Y-00029148
Y00028652
M30
